<?xml version="1.0" encoding="utf-8"?>
<!-- Generator: Adobe Illustrator 19.2.0, SVG Export Plug-In . SVG Version: 6.00 Build 0)  -->
<svg version="1.1" id="Capa_1" xmlns="http://www.w3.org/2000/svg" xmlns:xlink="http://www.w3.org/1999/xlink" x="0px" y="0px"
	 width="210px" height="83.8px" viewBox="0 0 210 83.8" style="enable-background:new 0 0 210 83.8;" xml:space="preserve">
<style type="text/css">
	.st0{fill:#065184;}
	.st1{fill:#FF8A00;}
</style>
<g>
	<g>
		<path class="st0" d="M41.4,1.2c11.9,0,18,9,18,19.4c0.1,4.8,0,7.5,0,13.4h-4.4c0,0-3.9,8.5,3,13.4c0,0.3-25.6,8.5-31.4-16.5
			c0,0.3,13.2,8.4,20.9,5.9c0,0,3-11.1,0.8-17.8c-2.9-8.7-15.7-6.3-21.6-2.8C11.4,25.1,6.7,38.5,1,48.9C1,48.9,4.7,1.2,41.4,1.2
			 M178.5,61.5c-1.1,0-2-0.4-2.8-1.1c-0.6-0.8-1-1.8-1-3.2v-0.6v-0.6c0-1.3,0.4-2.3,1.1-3c0.6-0.8,1.6-1.1,2.8-1.1
			c1.1,0,1.9,0.4,2.7,1v-3.8c0-0.1,0-0.3,0.1-0.4c0.1-0.1,0.3-0.1,0.3-0.1h2.3c0.1,0,0.3,0,0.4,0.1s0.1,0.3,0.1,0.4v11.9
			c0,0.1,0,0.3-0.1,0.4c-0.1,0.1-0.3,0.1-0.4,0.1h-2.2c-0.1,0-0.3,0-0.3-0.1c0-0.1-0.1-0.3-0.1-0.3v-0.5
			C180.6,61.1,179.7,61.5,178.5,61.5 M179.5,58.9c0.5,0,0.9-0.1,1.1-0.5c0.3-0.4,0.4-0.8,0.4-1.3c0-0.4,0-0.5,0-0.6s0-0.4,0-0.6
			c0-0.5-0.1-0.9-0.4-1.1c-0.3-0.3-0.6-0.5-1.1-0.5c-0.5,0-0.9,0.1-1.1,0.5c-0.3,0.4-0.4,0.8-0.4,1.3v0.5V57c0,0.5,0.1,1,0.4,1.3
			C178.6,58.8,179,58.9,179.5,58.9 M190.6,61.5c-1.5,0-2.7-0.4-3.4-1.1c-0.9-0.8-1.3-1.9-1.3-3.4v-0.5c0-1.4,0.5-2.5,1.4-3.3
			c0.9-0.8,2-1.3,3.4-1.3c1,0,1.9,0.3,2.7,0.6c0.8,0.4,1.3,1,1.6,1.8c0.4,0.8,0.5,1.5,0.5,2.5v0.5c0,0.1,0,0.3-0.1,0.4
			s-0.3,0.1-0.4,0.1h-5.7v0.1c0,0.5,0.1,1,0.4,1.3c0.3,0.4,0.6,0.5,1,0.5c0.3,0,0.5,0,0.6-0.1c0.1-0.1,0.4-0.3,0.5-0.4
			c0.1-0.1,0.3-0.3,0.3-0.3c0.1,0,0.1,0,0.3,0h2.4c0.1,0,0.3,0,0.3,0.1c0.1,0.1,0.1,0.1,0.1,0.3c0,0.3-0.1,0.6-0.5,1.1
			c-0.4,0.4-0.9,0.8-1.5,1.1C192.3,61.3,191.5,61.5,190.6,61.5 M192,55.6L192,55.6c0-0.6-0.1-1-0.4-1.4c-0.3-0.4-0.6-0.5-1-0.5
			c-0.4,0-0.8,0.1-1,0.5c-0.3,0.4-0.4,0.8-0.4,1.4l0,0H192z M77.7,79.2c-1.8,0-3.2-0.4-4.1-1.3c-1-0.9-1.5-2-1.5-3.7
			c0-0.4,0-0.9,0-1.6s0-1.3,0-1.6c0-1.5,0.6-2.7,1.5-3.5c1-0.9,2.4-1.3,4.1-1.3c1.1,0,2.2,0.1,3,0.5c0.9,0.4,1.5,0.9,2,1.4
			c0.5,0.6,0.6,1.1,0.8,1.8c0,0.1,0,0.3-0.1,0.3c-0.1,0.1-0.1,0.1-0.3,0.1h-2.8c-0.1,0-0.3,0-0.3,0c-0.1,0-0.1-0.1-0.3-0.3
			c-0.1-0.4-0.4-0.6-0.6-0.9c-0.4-0.3-0.8-0.4-1.4-0.4c-1.4,0-2.2,0.8-2.2,2.2c0,0.4,0,0.9,0,1.5s0,1.3,0,1.5c0,1.5,0.8,2.3,2.2,2.3
			c0.8,0,1.3-0.1,1.6-0.5c0.4-0.4,0.6-0.9,0.6-1.6v-0.4h-1.6c-0.1,0-0.3,0-0.4-0.1C78,73.3,78,73.2,78,73.1v-1.4
			c0-0.1,0-0.3,0.1-0.4c0.1-0.1,0.3-0.1,0.4-0.1H83c0.1,0,0.3,0,0.4,0.1c0.1,0.1,0.1,0.3,0.1,0.4v2.7c0,1-0.3,1.9-0.8,2.7
			c-0.5,0.8-1.1,1.3-2,1.6C79.9,79,78.8,79.2,77.7,79.2 M85.6,79c-0.1,0-0.3,0-0.3-0.1c-0.1-0.1-0.1-0.3-0.1-0.3v-8.5
			c0-0.1,0-0.3,0.1-0.4c0.1-0.1,0.3-0.1,0.4-0.1h2.2c0.1,0,0.3,0,0.4,0.1c0.1,0.1,0.1,0.3,0.1,0.4v0.6c0.4-0.4,0.8-0.6,1.1-0.9
			c0.5-0.3,1-0.3,1.5-0.3h0.8c0.1,0,0.3,0,0.4,0.1c0.1,0.1,0.1,0.3,0.1,0.4v2c0,0.1,0,0.3-0.1,0.3c-0.1,0.1-0.3,0.1-0.4,0.1H90
			c-0.5,0-0.9,0.1-1.1,0.4c-0.3,0.3-0.4,0.6-0.4,1.1v4.6c0,0.1,0,0.3-0.1,0.4c-0.1,0.1-0.3,0.1-0.4,0.1h-2.4V79z M95.9,79.2
			c-0.6,0-1.3-0.1-1.8-0.4c-0.5-0.3-0.9-0.6-1.3-1c-0.3-0.4-0.4-0.9-0.4-1.4c0-0.8,0.4-1.5,1-2c0.6-0.5,1.6-0.9,2.8-1l2.3-0.4v-0.3
			c0-0.5-0.1-0.8-0.3-1s-0.5-0.3-0.9-0.3c-0.3,0-0.4,0-0.6,0.1c-0.1,0.1-0.4,0.3-0.5,0.4c-0.1,0.1-0.3,0.3-0.4,0.3
			c0,0.1-0.1,0.1-0.1,0.1h-2c-0.1,0-0.3,0-0.3-0.1c-0.1-0.1-0.1-0.1-0.1-0.3c0-0.4,0.1-0.6,0.5-1.1c0.3-0.4,0.8-0.8,1.4-1
			s1.4-0.4,2.4-0.4c1.5,0,2.5,0.4,3.3,1s1.1,1.5,1.1,2.7v5.4c0,0.1,0,0.3-0.1,0.3c-0.1,0.1-0.3,0.1-0.4,0.1h-2.2
			c-0.1,0-0.3,0-0.3-0.1c-0.1-0.1-0.1-0.3-0.1-0.3v-0.6c-0.3,0.4-0.6,0.6-1.1,0.9C97.2,79,96.7,79.2,95.9,79.2 M96.9,77.1
			c0.5,0,1-0.1,1.3-0.5c0.4-0.4,0.5-0.9,0.5-1.5v-0.3l-1.5,0.3c-1,0.3-1.5,0.5-1.5,1.1c0,0.3,0.1,0.5,0.4,0.6
			C96.3,77,96.6,77.1,96.9,77.1 M104.2,79c-0.1,0-0.3,0-0.3-0.1c-0.1-0.1-0.1-0.3-0.1-0.3v-8.5c0-0.1,0-0.3,0.1-0.4
			c0.1-0.1,0.3-0.1,0.3-0.1h2.2c0.1,0,0.3,0,0.4,0.1s0.1,0.3,0.1,0.4v0.6c0.4-0.4,0.8-0.8,1.3-1c0.5-0.3,1.1-0.4,1.8-0.4
			s1.3,0.1,1.8,0.5c0.5,0.3,1,0.8,1.3,1.4s0.5,1.4,0.5,2.2v5.1c0,0.1,0,0.3-0.1,0.3c-0.1,0.1-0.3,0.1-0.4,0.1h-2.4
			c-0.1,0-0.3,0-0.4-0.1c-0.1-0.1-0.1-0.3-0.1-0.4v-4.9c0-0.5-0.1-1-0.4-1.3c-0.3-0.3-0.6-0.4-1.1-0.4c-0.5,0-0.9,0.1-1.1,0.4
			c-0.3,0.3-0.4,0.8-0.4,1.3v4.9c0,0.1,0,0.3-0.1,0.3c-0.1,0.1-0.3,0.1-0.4,0.1h-2.3V79z M124.3,79.2c-1.8,0-3-0.4-4.1-1.3
			c-1-0.8-1.5-2-1.5-3.5c0-0.4,0-0.9,0-1.6c0-0.8,0-1.3,0-1.6c0-1.5,0.6-2.8,1.5-3.7c1-0.9,2.3-1.3,4.1-1.3c1,0,2,0.1,2.9,0.5
			c0.9,0.4,1.5,0.9,2,1.5c0.5,0.6,0.8,1.4,0.8,2.3c0,0.1,0,0.3-0.1,0.3c-0.1,0.1-0.1,0.1-0.3,0.1h-2.5c-0.1,0-0.3,0-0.4-0.1
			c-0.1-0.1-0.1-0.3-0.3-0.4c-0.1-0.6-0.4-1-0.8-1.3c-0.4-0.3-0.8-0.4-1.4-0.4c-1.4,0-2,0.8-2.2,2.3c0,0.4,0,0.8,0,1.5
			c0,0.6,0,1.1,0,1.5c0,1.5,0.8,2.3,2.2,2.3c0.5,0,1-0.1,1.4-0.4c0.4-0.3,0.6-0.6,0.8-1.3c0-0.1,0.1-0.3,0.3-0.4
			c0.1-0.1,0.3-0.1,0.4-0.1h2.5c0.1,0,0.3,0,0.3,0.1c0,0.1,0.1,0.1,0.1,0.3c0,0.9-0.3,1.6-0.8,2.3c-0.5,0.6-1.1,1.1-2,1.5
			C126.3,79,125.4,79.2,124.3,79.2 M134.3,79.2c-0.6,0-1.3-0.1-1.8-0.4c-0.5-0.3-0.9-0.6-1.3-1c-0.3-0.4-0.4-0.9-0.4-1.4
			c0-0.8,0.4-1.5,1-2c0.6-0.5,1.6-0.9,2.8-1l2.3-0.4v-0.3c0-0.5-0.1-0.8-0.3-1c-0.1-0.3-0.5-0.3-0.9-0.3c-0.3,0-0.4,0-0.6,0.1
			c-0.1,0.1-0.4,0.3-0.5,0.4s-0.3,0.3-0.4,0.3c0,0.1-0.1,0.1-0.1,0.1h-2c-0.1,0-0.3,0-0.3-0.1c-0.1-0.1-0.1-0.1-0.1-0.3
			c0-0.4,0.1-0.6,0.5-1.1c0.3-0.4,0.8-0.8,1.4-1s1.4-0.4,2.4-0.4c1.5,0,2.5,0.4,3.3,1c0.8,0.6,1.1,1.5,1.1,2.7v5.4
			c0,0.1,0,0.3-0.1,0.3c-0.1,0.1-0.3,0.1-0.4,0.1h-2.2c-0.1,0-0.3,0-0.3-0.1c-0.1-0.1-0.1-0.3-0.1-0.3v-0.6
			c-0.3,0.4-0.6,0.6-1.1,0.9C135.4,79,134.9,79.2,134.3,79.2 M135.2,77.1c0.5,0,1-0.1,1.3-0.5c0.4-0.4,0.5-0.9,0.5-1.5v-0.3
			l-1.5,0.3c-1,0.3-1.5,0.5-1.5,1.1c0,0.3,0.1,0.5,0.4,0.6C134.5,77,134.8,77.1,135.2,77.1 M142.4,79c-0.1,0-0.3,0-0.3-0.1
			c-0.1-0.1-0.1-0.3-0.1-0.3v-8.5c0-0.1,0-0.3,0.1-0.4s0.3-0.1,0.3-0.1h2.2c0.1,0,0.3,0,0.4,0.1c0.1,0.1,0.1,0.3,0.1,0.4v0.6
			c0.4-0.4,0.8-0.8,1.3-1s1.1-0.4,1.8-0.4s1.3,0.1,1.8,0.5c0.5,0.3,1,0.8,1.3,1.4c0.3,0.6,0.5,1.4,0.5,2.2v5.1c0,0.1,0,0.3-0.1,0.3
			c-0.1,0.1-0.3,0.1-0.4,0.1h-2.4c-0.1,0-0.3,0-0.4-0.1c-0.1-0.1-0.1-0.3-0.1-0.4v-4.9c0-0.5-0.1-1-0.4-1.3
			c-0.3-0.3-0.6-0.4-1.1-0.4s-0.9,0.1-1.1,0.4c-0.3,0.3-0.4,0.8-0.4,1.3v4.9c0,0.1,0,0.3-0.1,0.3c-0.1,0.1-0.3,0.1-0.4,0.1h-2.3V79z
			 M156.2,79.2c-0.6,0-1.3-0.1-1.8-0.4c-0.5-0.3-0.9-0.6-1.3-1c-0.3-0.4-0.4-0.9-0.4-1.4c0-0.8,0.4-1.5,1-2c0.6-0.5,1.6-0.9,2.8-1
			l2.3-0.4v-0.3c0-0.5-0.1-0.8-0.3-1s-0.5-0.3-0.9-0.3c-0.3,0-0.5,0-0.6,0.1c-0.1,0.1-0.4,0.3-0.5,0.4c-0.1,0.1-0.3,0.3-0.4,0.3
			c0,0.1-0.1,0.1-0.1,0.1h-2.2c-0.1,0-0.3,0-0.3-0.1c-0.1-0.1-0.1-0.1-0.1-0.3c0-0.4,0.1-0.6,0.5-1.1c0.3-0.4,0.8-0.8,1.4-1
			s1.4-0.4,2.4-0.4c1.5,0,2.5,0.4,3.3,1c0.8,0.6,1.1,1.5,1.1,2.7v5.4c0,0.1,0,0.3-0.1,0.3c-0.1,0.1-0.3,0.1-0.4,0.1h-2.3
			c-0.1,0-0.3,0-0.3-0.1c-0.1-0.1-0.1-0.3-0.1-0.3v-0.6c-0.3,0.4-0.6,0.6-1.1,0.9C157.3,79,156.8,79.2,156.2,79.2 M157.1,77.1
			c0.5,0,1-0.1,1.3-0.5c0.4-0.4,0.5-0.9,0.5-1.5v-0.3l-1.5,0.3c-1,0.3-1.5,0.5-1.5,1.1c0,0.3,0.1,0.5,0.4,0.6
			C156.4,77,156.7,77.1,157.1,77.1 M164.3,79c-0.1,0-0.3,0-0.3-0.1c-0.1-0.1-0.1-0.3-0.1-0.3v-8.5c0-0.1,0-0.3,0.1-0.4
			s0.3-0.1,0.4-0.1h2.2c0.1,0,0.3,0,0.4,0.1c0.1,0.1,0.1,0.3,0.1,0.4v0.6c0.4-0.4,0.8-0.6,1.1-0.9c0.5-0.3,1-0.3,1.5-0.3h0.8
			c0.1,0,0.3,0,0.4,0.1c0.1,0.1,0.1,0.3,0.1,0.4v2c0,0.1,0,0.3-0.1,0.3c-0.1,0.1-0.3,0.1-0.4,0.1h-1.8c-0.5,0-0.9,0.1-1.1,0.4
			c-0.3,0.3-0.4,0.6-0.4,1.1v4.6c0,0.1,0,0.3-0.1,0.4c-0.1,0.1-0.3,0.1-0.4,0.1h-2.4V79z M172.4,68.4c-0.1,0-0.3,0-0.4-0.1
			c-0.1-0.1-0.1-0.3-0.1-0.4v-1.6c0-0.1,0-0.3,0.1-0.4c0.1-0.1,0.3-0.1,0.3-0.1h2.3c0.1,0,0.3,0,0.4,0.1c0.1,0.1,0.1,0.3,0.1,0.4
			v1.6c0,0.1,0,0.3-0.1,0.4s-0.3,0.1-0.4,0.1H172.4z M172.4,79c-0.1,0-0.3,0-0.3-0.1c-0.1-0.1-0.1-0.3-0.1-0.3v-8.5
			c0-0.1,0-0.3,0.1-0.4c0.1-0.1,0.3-0.1,0.3-0.1h2.3c0.1,0,0.3,0,0.4,0.1s0.1,0.3,0.1,0.4v8.5c0,0.1,0,0.3-0.1,0.4
			c-0.1,0.1-0.3,0.1-0.4,0.1h-2.3V79z M179.7,79.2c-0.6,0-1.3-0.1-1.8-0.4c-0.5-0.3-0.9-0.6-1.3-1c-0.3-0.4-0.4-0.9-0.4-1.4
			c0-0.8,0.4-1.5,1-2c0.6-0.5,1.6-0.9,2.8-1l2.3-0.4v-0.3c0-0.5-0.1-0.8-0.3-1s-0.5-0.3-0.9-0.3c-0.3,0-0.4,0-0.6,0.1
			c-0.1,0.1-0.4,0.3-0.5,0.4c-0.1,0.1-0.3,0.3-0.4,0.3c0,0.1-0.1,0.1-0.1,0.1h-2.2c-0.1,0-0.3,0-0.3-0.1c-0.1-0.1-0.1-0.1-0.1-0.3
			c0-0.4,0.1-0.6,0.5-1.1c0.3-0.4,0.8-0.8,1.4-1s1.4-0.4,2.4-0.4c1.5,0,2.5,0.4,3.3,1s1.1,1.5,1.1,2.7v5.4c0,0.1,0,0.3-0.1,0.3
			c-0.1,0.1-0.3,0.1-0.4,0.1H183c-0.1,0-0.3,0-0.3-0.1c-0.1-0.1-0.1-0.3-0.1-0.3v-0.6c-0.3,0.4-0.6,0.6-1.1,0.9
			S180.5,79.2,179.7,79.2 M180.7,77.1c0.5,0,1-0.1,1.3-0.5c0.4-0.4,0.5-0.9,0.5-1.5v-0.3l-1.5,0.3c-1,0.3-1.5,0.5-1.5,1.1
			c0,0.3,0.1,0.5,0.4,0.6C180.1,77,180.4,77.1,180.7,77.1 M77.2,43.7c-1.6,0-2.9-0.4-3.8-1.3s-1.4-2-1.4-3.8v-7.3
			c0-0.1,0-0.3,0.1-0.4c0.1-0.1,0.1-0.1,0.3-0.1H74c0.1,0,0.3,0,0.4,0.1c0.1,0.1,0.1,0.3,0.1,0.4v7.3c0,0.9,0.3,1.6,0.6,2.2
			c0.5,0.5,1.1,0.8,1.9,0.8s1.5-0.3,1.9-0.8c0.5-0.5,0.6-1.1,0.6-2.2v-7.3c0-0.1,0-0.3,0.1-0.4s0.3-0.1,0.4-0.1h1.6
			c0.1,0,0.3,0,0.3,0.1c0.1,0.1,0.1,0.3,0.1,0.4v7.3c0,1.6-0.5,2.9-1.4,3.8C80.1,43.2,78.8,43.7,77.2,43.7 M85,43.5
			c-0.1,0-0.3,0-0.3-0.1c-0.1-0.1-0.1-0.1-0.1-0.3v-8.5c0-0.1,0-0.3,0.1-0.3c0.1-0.1,0.1-0.1,0.3-0.1h1.5c0.1,0,0.3,0,0.3,0.1
			c0.1,0.1,0.1,0.1,0.1,0.3v0.8c0.8-0.9,1.8-1.4,3-1.4c1.1,0,2,0.4,2.7,1.1s1,1.8,1,2.9v5.1c0,0.1,0,0.3-0.1,0.3
			c-0.1,0.1-0.1,0.1-0.3,0.1h-1.6c-0.1,0-0.3,0-0.3-0.1c-0.1-0.1-0.1-0.1-0.1-0.3v-4.9c0-0.6-0.1-1.3-0.5-1.6
			c-0.4-0.4-0.9-0.6-1.5-0.6s-1.1,0.3-1.5,0.6c-0.4,0.4-0.5,0.9-0.5,1.6v4.9c0,0.1,0,0.3-0.1,0.3c-0.1,0.1-0.1,0.1-0.3,0.1H85z
			 M96.1,32.6c-0.1,0-0.3,0-0.3-0.1c-0.1-0.1-0.1-0.1-0.1-0.3v-1.3c0-0.1,0-0.3,0.1-0.4c0.1-0.1,0.1-0.1,0.3-0.1h1.6
			c0.1,0,0.3,0,0.4,0.1c0.1,0.1,0.1,0.3,0.1,0.4v1.3c0,0.1,0,0.3-0.1,0.3c-0.1,0.1-0.3,0.1-0.4,0.1H96.1z M96.1,43.5
			c-0.1,0-0.3,0-0.3-0.1c-0.1-0.1-0.1-0.1-0.1-0.3v-8.5c0-0.1,0-0.3,0.1-0.3c0.1-0.1,0.1-0.1,0.3-0.1h1.5c0.1,0,0.3,0,0.3,0.1
			c0.1,0.1,0.1,0.1,0.1,0.3v8.5c0,0.1,0,0.3-0.1,0.3c-0.1,0.1-0.1,0.1-0.3,0.1H96.1z M103.5,43.5c-0.1,0-0.4,0-0.4-0.1
			c-0.1-0.1-0.1-0.1-0.3-0.4l-3.4-8.4v-0.1c0-0.1,0-0.3,0.1-0.3c0.1-0.1,0.1-0.1,0.3-0.1h1.5c0.3,0,0.4,0.1,0.5,0.4l2.4,6.3l2.4-6.3
			c0-0.1,0.1-0.1,0.1-0.3c0.1-0.1,0.1-0.1,0.3-0.1h1.5c0.1,0,0.3,0,0.3,0.1c0.1,0.1,0.1,0.1,0.1,0.3s0,0.1,0,0.1l-3.4,8.4
			c-0.1,0.3-0.4,0.5-0.6,0.5C104.9,43.5,103.5,43.5,103.5,43.5z M114.4,43.7c-1.4,0-2.4-0.4-3.2-1.1c-0.8-0.8-1.3-1.9-1.3-3.3v-0.5
			c0-1.5,0.4-2.7,1.1-3.5c0.8-0.9,1.9-1.3,3.3-1.3c1.4,0,2.5,0.4,3.3,1.3c0.8,0.9,1.1,2,1.1,3.4V39c0,0.1,0,0.3-0.1,0.3
			c-0.1,0.1-0.3,0.1-0.4,0.1h-5.9v0.1c0,0.6,0.3,1.3,0.5,1.6c0.4,0.4,0.8,0.6,1.4,0.6s1.3-0.3,1.6-0.9c0.1-0.1,0.3-0.3,0.3-0.3
			s0.1,0,0.3,0h1.6c0.1,0,0.3,0,0.3,0.1c0.1,0,0.1,0.1,0.1,0.3c0,0.3-0.1,0.6-0.5,1c-0.4,0.4-0.9,0.8-1.5,1
			C116.1,43.5,115.3,43.7,114.4,43.7 M116.4,38L116.4,38c0-0.8-0.1-1.3-0.5-1.8c-0.4-0.4-0.9-0.6-1.4-0.6c-0.6,0-1.1,0.3-1.4,0.6
			c-0.4,0.4-0.5,1-0.5,1.6l0,0h3.8V38z M121,43.5c-0.1,0-0.3,0-0.3-0.1c-0.1-0.1-0.1-0.1-0.1-0.3v-8.5c0-0.1,0-0.3,0.1-0.4
			c0.1-0.1,0.1-0.1,0.3-0.1h1.5c0.1,0,0.3,0,0.4,0.1c0.1,0.1,0.1,0.3,0.1,0.4v0.8c0.6-0.8,1.5-1.1,2.5-1.1h0.8c0.1,0,0.3,0,0.3,0.1
			c0.1,0.1,0.1,0.1,0.1,0.3v1.3c0,0.1,0,0.3-0.1,0.3c-0.1,0.1-0.1,0.1-0.3,0.1h-1.4c-0.5,0-1,0.1-1.4,0.5c-0.4,0.4-0.5,0.8-0.5,1.4
			v4.9c0,0.1,0,0.3-0.1,0.3c-0.1,0.1-0.1,0.1-0.3,0.1C122.6,43.5,121,43.5,121,43.5z M131.5,43.7c-0.9,0-1.6-0.1-2.3-0.4
			c-0.6-0.3-1-0.6-1.4-1c-0.3-0.4-0.4-0.6-0.4-0.9c0-0.1,0-0.3,0.1-0.3c0.1-0.1,0.1-0.1,0.3-0.1h1.5c0.1,0,0.1,0,0.3,0.1
			c0,0,0.3,0.1,0.4,0.4c0.3,0.1,0.5,0.4,0.8,0.4c0.3,0.1,0.5,0.1,0.9,0.1c0.5,0,0.9-0.1,1.1-0.3c0.3-0.1,0.5-0.5,0.5-0.8
			c0-0.3-0.1-0.4-0.3-0.6c-0.1-0.1-0.4-0.3-0.8-0.4s-0.9-0.3-1.6-0.4c-1-0.3-1.8-0.5-2.3-1c-0.5-0.5-0.8-1-0.8-1.8
			c0-0.5,0.1-0.9,0.4-1.4c0.3-0.4,0.8-0.8,1.3-1c0.6-0.3,1.3-0.4,2-0.4c0.8,0,1.5,0.1,2.2,0.4c0.6,0.3,1,0.5,1.4,0.9
			c0.3,0.4,0.5,0.6,0.5,1c0,0.1,0,0.3-0.1,0.3c-0.1,0.1-0.1,0.1-0.3,0.1h-1.4c-0.1,0-0.3,0-0.3-0.1c-0.1,0-0.3-0.1-0.4-0.4
			c-0.1-0.1-0.4-0.3-0.6-0.4c-0.3-0.1-0.5-0.1-0.9-0.1c-0.5,0-0.8,0.1-1,0.3c-0.3,0.3-0.4,0.5-0.4,0.8c0,0.3,0,0.4,0.1,0.5
			c0.1,0.1,0.4,0.3,0.6,0.4c0.4,0.1,0.9,0.3,1.5,0.4c2.2,0.4,3.3,1.4,3.3,2.8c0,0.9-0.4,1.5-1.1,2C133.9,43.5,132.8,43.7,131.5,43.7
			 M137.7,32.6c-0.1,0-0.3,0-0.3-0.1c-0.1-0.1-0.1-0.1-0.1-0.3v-1.3c0-0.1,0-0.3,0.1-0.4c0.1-0.1,0.1-0.1,0.3-0.1h1.6
			c0.1,0,0.3,0,0.4,0.1c0.1,0.1,0.1,0.3,0.1,0.4v1.3c0,0.1,0,0.3-0.1,0.3c-0.1,0.1-0.3,0.1-0.3,0.1H137.7z M137.8,43.5
			c-0.1,0-0.3,0-0.3-0.1c-0.1-0.1-0.1-0.1-0.1-0.3v-8.5c0-0.1,0-0.3,0.1-0.3c0.1-0.1,0.1-0.1,0.3-0.1h1.5c0.1,0,0.3,0,0.3,0.1
			c0.1,0.1,0.1,0.1,0.1,0.3v8.5c0,0.1,0,0.3-0.1,0.3c-0.1,0.1-0.1,0.1-0.3,0.1H137.8z M145.4,43.7c-1.3,0-2.2-0.4-2.8-1.1
			c-0.6-0.8-1-1.8-1-3.2v-0.6v-0.6c0-1.3,0.4-2.3,1-3s1.6-1.1,2.8-1.1c1.1,0,2,0.4,2.8,1.1v-4.1c0-0.1,0-0.3,0.1-0.3
			c0.1-0.1,0.1-0.1,0.3-0.1h1.5c0.1,0,0.3,0,0.3,0.1c0.1,0.1,0.1,0.1,0.1,0.3V43c0,0.1,0,0.3-0.1,0.3c-0.1,0.1-0.1,0.1-0.3,0.1h-1.5
			c-0.1,0-0.3,0-0.3-0.1c-0.1-0.1-0.1-0.1-0.1-0.3v-0.6C147.6,43.2,146.6,43.7,145.4,43.7 M146.1,41.7c0.6,0,1.1-0.3,1.5-0.6
			c0.4-0.4,0.5-1,0.5-1.6c0-0.1,0-0.4,0-0.6c0-0.4,0-0.5,0-0.8c0-0.6-0.3-1.1-0.5-1.5c-0.4-0.4-0.9-0.6-1.5-0.6c-1.3,0-2,0.8-2,2.4
			v0.5v0.5C144,40.9,144.8,41.7,146.1,41.7 M155.4,43.7c-0.6,0-1.1-0.1-1.6-0.4c-0.5-0.3-0.9-0.6-1.3-1c-0.3-0.4-0.4-0.9-0.4-1.4
			c0-0.8,0.4-1.5,1-2c0.6-0.5,1.5-0.9,2.7-1l2.4-0.4v-0.4c0-0.5-0.1-0.9-0.4-1.1c-0.3-0.3-0.6-0.4-1.3-0.4c-0.4,0-0.8,0.1-1,0.3
			c-0.3,0.1-0.4,0.3-0.6,0.4c-0.1,0.1-0.3,0.3-0.3,0.3c0,0.1-0.1,0.3-0.3,0.3H153c-0.1,0-0.3,0-0.3-0.1c-0.1-0.1-0.1-0.1-0.1-0.3
			c0-0.3,0.1-0.6,0.4-1c0.3-0.4,0.8-0.8,1.3-1c0.6-0.3,1.3-0.4,2.2-0.4c1.4,0,2.4,0.4,3,1s1,1.5,1,2.5v5.7c0,0.1,0,0.3-0.1,0.3
			c-0.1,0.1-0.1,0.1-0.3,0.1h-1.5c-0.1,0-0.3,0-0.3-0.1c-0.1-0.1-0.1-0.1-0.1-0.3v-0.8c-0.3,0.4-0.6,0.8-1.1,0.9
			C156.8,43.6,156.2,43.7,155.4,43.7 M156.1,42c0.6,0,1.1-0.3,1.6-0.6c0.5-0.4,0.6-1,0.6-1.9V39l-1.8,0.3c-1.4,0.3-2,0.6-2,1.4
			c0,0.4,0.1,0.6,0.5,0.9C155.3,41.8,155.7,42,156.1,42 M166.3,43.7c-1.3,0-2.2-0.4-2.8-1.1c-0.6-0.8-1-1.8-1-3.2v-0.6v-0.6
			c0-1.3,0.4-2.3,1-3s1.6-1.1,2.8-1.1c1.1,0,2,0.4,2.8,1.1v-4.1c0-0.1,0-0.3,0.1-0.3c0.1-0.1,0.1-0.1,0.3-0.1h1.5
			c0.1,0,0.3,0,0.4,0.1c0.1,0.1,0.1,0.1,0.1,0.3V43c0,0.1,0,0.3-0.1,0.3c-0.1,0.1-0.1,0.1-0.4,0.1h-1.5c-0.1,0-0.3,0-0.3-0.1
			c-0.1-0.1-0.1-0.1-0.1-0.3v-0.6C168.5,43.2,167.6,43.7,166.3,43.7 M167.1,41.7c0.6,0,1.1-0.3,1.5-0.6c0.4-0.4,0.5-1,0.5-1.6
			c0-0.1,0-0.4,0-0.6c0-0.4,0-0.5,0-0.8c0-0.6-0.3-1.1-0.5-1.5c-0.4-0.4-0.9-0.6-1.5-0.6c-1.3,0-2,0.8-2,2.4v0.5v0.5
			C165,40.9,165.7,41.7,167.1,41.7 M181.2,43.7c-1.3,0-2.2-0.4-2.8-1.1c-0.6-0.8-1-1.8-1-3.2v-0.6v-0.6c0-1.3,0.4-2.3,1-3
			s1.6-1.1,2.8-1.1c1.1,0,2,0.4,2.8,1.1v-4.1c0-0.1,0-0.3,0.1-0.3c0.1-0.1,0.1-0.1,0.3-0.1h1.5c0.1,0,0.3,0,0.3,0.1
			c0.1,0.1,0.1,0.1,0.1,0.3V43c0,0.1,0,0.3-0.1,0.3c-0.1,0.1-0.1,0.1-0.3,0.1h-1.4c-0.1,0-0.3,0-0.3-0.1c-0.1-0.1-0.1-0.1-0.1-0.3
			v-0.6C183.5,43.2,182.5,43.7,181.2,43.7 M182,41.7c0.6,0,1.1-0.3,1.5-0.6c0.4-0.4,0.5-1,0.5-1.6c0-0.1,0-0.4,0-0.6
			c0-0.4,0-0.5,0-0.8c0-0.6-0.3-1.1-0.5-1.5c-0.4-0.4-0.9-0.6-1.5-0.6c-1.3,0-2,0.8-2,2.4v0.5v0.5C180,40.9,180.7,41.7,182,41.7
			 M192.8,43.7c-1.4,0-2.4-0.4-3.2-1.1c-0.8-0.8-1.3-1.9-1.3-3.3v-0.5c0-1.5,0.4-2.7,1.1-3.5c0.8-0.9,1.9-1.3,3.3-1.3
			s2.5,0.4,3.3,1.3c0.8,0.9,1.1,2,1.1,3.4V39c0,0.1,0,0.3-0.1,0.3c-0.1,0.1-0.3,0.1-0.4,0.1h-5.9v0.1c0,0.6,0.3,1.3,0.5,1.6
			c0.4,0.4,0.8,0.6,1.4,0.6s1.3-0.3,1.6-0.9c0.1-0.1,0.3-0.3,0.3-0.3s0.1,0,0.3,0h1.6c0.1,0,0.3,0,0.3,0.1c0.1,0,0.1,0.1,0.1,0.3
			c0,0.3-0.1,0.6-0.5,1c-0.4,0.4-0.9,0.8-1.5,1C194.3,43.5,193.5,43.7,192.8,43.7 M194.7,38L194.7,38c0-0.8-0.1-1.3-0.5-1.8
			c-0.4-0.4-0.9-0.6-1.4-0.6c-0.6,0-1.1,0.3-1.4,0.6c-0.4,0.4-0.5,1-0.5,1.6l0,0h3.8V38z M72.5,61.3c-0.1,0-0.3,0-0.3-0.1
			s-0.1-0.3-0.1-0.3V49.3c0-0.1,0-0.3,0.1-0.4c0.1-0.1,0.3-0.1,0.3-0.1H75c0.1,0,0.3,0,0.4,0.1c0.1,0.1,0.1,0.3,0.1,0.4v9.4H81
			c0.1,0,0.3,0,0.4,0.1s0.1,0.3,0.1,0.4v1.9c0,0.1,0,0.3-0.1,0.4c-0.1,0.1-0.3,0.1-0.4,0.1h-8.5V61.3z M85.3,61.5
			c-0.6,0-1.3-0.1-1.8-0.4c-0.5-0.3-0.9-0.6-1.3-1c-0.3-0.4-0.4-0.9-0.4-1.4c0-0.8,0.4-1.5,1-2c0.6-0.5,1.6-0.9,2.8-1l2.3-0.4V55
			c0-0.5-0.1-0.8-0.3-1c-0.1-0.3-0.5-0.3-0.9-0.3c-0.3,0-0.4,0-0.6,0.1c-0.1,0.1-0.4,0.3-0.5,0.4c-0.1,0.1-0.3,0.3-0.4,0.3
			c0,0.1-0.1,0.1-0.1,0.1H83c-0.1,0-0.3,0-0.3-0.1c-0.1-0.1-0.1-0.1-0.1-0.3c0-0.4,0.1-0.6,0.5-1.1c0.3-0.4,0.8-0.8,1.4-1
			c0.6-0.3,1.4-0.4,2.4-0.4c1.5,0,2.5,0.4,3.3,1c0.8,0.6,1.1,1.5,1.1,2.7v5.4c0,0.1,0,0.3-0.1,0.3c-0.1,0.1-0.3,0.1-0.4,0.1h-2.2
			c-0.1,0-0.3,0-0.3-0.1c-0.1-0.1-0.1-0.3-0.1-0.3v-0.6c-0.3,0.4-0.6,0.6-1.1,0.9C86.4,61.3,85.9,61.5,85.3,61.5 M86.2,59.3
			c0.5,0,1-0.1,1.3-0.5c0.4-0.4,0.5-0.9,0.5-1.5V57l-1.5,0.3c-1,0.3-1.5,0.5-1.5,1.1c0,0.3,0.1,0.5,0.4,0.6
			C85.6,59.3,85.8,59.3,86.2,59.3 M96.8,61.5c-1,0-1.8-0.1-2.4-0.4c-0.6-0.3-1.1-0.6-1.5-1c-0.4-0.4-0.5-0.8-0.5-1
			c0-0.1,0-0.3,0.1-0.3c0.1-0.1,0.1-0.1,0.3-0.1h2.2c0.1,0,0.1,0,0.1,0.1c0.3,0.1,0.4,0.3,0.4,0.3c0.3,0.1,0.4,0.3,0.6,0.4
			c0.3,0.1,0.4,0.1,0.8,0.1c0.4,0,0.6,0,0.8-0.1c0.3-0.1,0.3-0.3,0.3-0.5c0-0.3,0-0.4-0.1-0.5c-0.1-0.1-0.4-0.3-0.6-0.4
			c-0.4-0.1-0.8-0.3-1.4-0.4c-2-0.4-3.2-1.4-3.2-2.9c0-0.5,0.1-1,0.5-1.4c0.4-0.5,0.8-0.8,1.4-1.1c0.6-0.3,1.4-0.4,2.3-0.4
			c0.9,0,1.6,0.1,2.3,0.4c0.6,0.3,1.1,0.6,1.5,1c0.4,0.4,0.5,0.8,0.5,1c0,0.1,0,0.3-0.1,0.3c-0.1,0.1-0.1,0.1-0.3,0.1h-2
			c-0.1,0-0.3,0-0.3-0.1c-0.1-0.1-0.3-0.1-0.4-0.3c-0.3-0.1-0.4-0.3-0.5-0.4c-0.1-0.1-0.4-0.1-0.6-0.1c-0.3,0-0.5,0.1-0.8,0.3
			c-0.1,0.1-0.3,0.3-0.3,0.5c0,0.1,0,0.4,0.1,0.4c0.1,0.1,0.3,0.3,0.6,0.4s0.8,0.3,1.4,0.4c1.1,0.3,2,0.5,2.5,1.1
			c0.5,0.5,0.8,1.1,0.8,1.8c0,0.9-0.4,1.6-1.1,2.2C99.5,61.2,98.3,61.5,96.8,61.5 M107.2,61.3c-0.1,0-0.3,0-0.3-0.1
			c-0.1-0.1-0.1-0.3-0.1-0.3V49.3c0-0.1,0-0.3,0.1-0.4c0.1-0.1,0.3-0.1,0.4-0.1h5.1c1.5,0,2.8,0.4,3.7,1c0.9,0.8,1.4,1.8,1.4,3.2
			c0,1.4-0.5,2.4-1.4,3c-0.9,0.6-2.2,1-3.7,1h-2v3.9c0,0.1,0,0.3-0.1,0.3c-0.1,0.1-0.3,0.1-0.4,0.1H107.2z M112.3,54.4
			c0.5,0,0.9-0.1,1.1-0.4c0.3-0.3,0.4-0.6,0.4-1.1s-0.1-0.9-0.4-1.1c-0.3-0.3-0.6-0.4-1.1-0.4h-2v3H112.3z M121.4,61.5
			c-0.6,0-1.3-0.1-1.8-0.4c-0.5-0.3-0.9-0.6-1.3-1c-0.3-0.4-0.4-0.9-0.4-1.4c0-0.8,0.4-1.5,1-2c0.6-0.5,1.6-0.9,2.8-1l2.3-0.4V55
			c0-0.5-0.1-0.8-0.3-1c-0.1-0.3-0.5-0.3-0.9-0.3c-0.3,0-0.4,0-0.6,0.1c-0.1,0.1-0.4,0.3-0.5,0.4c-0.1,0.1-0.3,0.3-0.4,0.3
			c0,0.1-0.1,0.1-0.1,0.1h-2c-0.1,0-0.3,0-0.3-0.1c-0.1-0.1-0.1-0.1-0.1-0.3c0-0.4,0.1-0.6,0.5-1.1c0.3-0.4,0.8-0.8,1.4-1
			c0.6-0.3,1.4-0.4,2.4-0.4c1.5,0,2.5,0.4,3.3,1c0.8,0.6,1.1,1.5,1.1,2.7v5.4c0,0.1,0,0.3-0.1,0.3c-0.1,0.1-0.3,0.1-0.4,0.1h-2.2
			c-0.1,0-0.3,0-0.3-0.1c-0.1-0.1-0.1-0.3-0.1-0.3v-0.6c-0.3,0.4-0.6,0.6-1.1,0.9C122.6,61.3,122,61.5,121.4,61.5 M122.3,59.3
			c0.5,0,1-0.1,1.3-0.5c0.4-0.4,0.5-0.9,0.5-1.5V57l-1.5,0.3c-1,0.3-1.5,0.5-1.5,1.1c0,0.3,0.1,0.5,0.4,0.6
			C121.6,59.3,122,59.3,122.3,59.3 M129.6,61.3c-0.1,0-0.3,0-0.4-0.1s-0.1-0.3-0.1-0.4V48.9c0-0.1,0-0.3,0.1-0.4
			c0.1-0.1,0.3-0.1,0.4-0.1h2.3c0.1,0,0.3,0,0.4,0.1c0.1,0.1,0.1,0.3,0.1,0.4v11.9c0,0.1,0,0.3-0.1,0.3c-0.1,0.1-0.3,0.1-0.4,0.1
			h-2.3V61.3z M134.5,61.3c-0.1,0-0.3,0-0.3-0.1c-0.1-0.1-0.1-0.3-0.1-0.3v-8.5c0-0.1,0-0.3,0.1-0.4c0.1-0.1,0.3-0.1,0.3-0.1h2
			c0.1,0,0.3,0,0.4,0.1s0.1,0.3,0.1,0.4v0.6c0.3-0.4,0.6-0.6,1.1-0.9c0.5-0.3,1-0.4,1.5-0.4c1.3,0,2.3,0.5,2.7,1.5
			c0.3-0.5,0.6-0.9,1.3-1.1c0.5-0.3,1-0.4,1.6-0.4c1,0,1.8,0.4,2.4,1s0.9,1.6,0.9,3v5.1c0,0.1,0,0.3-0.1,0.3
			c-0.1,0.1-0.3,0.1-0.4,0.1h-2.2c-0.1,0-0.3,0-0.4-0.1c-0.1-0.1-0.1-0.3-0.1-0.4v-4.9c0-0.5-0.1-1-0.4-1.3
			c-0.3-0.3-0.5-0.4-0.9-0.4s-0.6,0.1-0.9,0.4c-0.3,0.3-0.4,0.6-0.4,1.3v4.9c0,0.1,0,0.3-0.1,0.3c-0.1,0.1-0.3,0.1-0.4,0.1h-2.3
			c-0.1,0-0.3,0-0.4-0.1c-0.1-0.1-0.1-0.3-0.1-0.4v-4.9c0-0.5-0.1-1-0.4-1.3c-0.3-0.3-0.5-0.4-0.9-0.4c-0.4,0-0.6,0.1-0.9,0.4
			c-0.3,0.3-0.4,0.6-0.4,1.1v5.1c0,0.1,0,0.3-0.1,0.3c-0.1,0.1-0.3,0.1-0.4,0.1h-2V61.3z M153.3,61.5c-0.6,0-1.3-0.1-1.8-0.4
			c-0.5-0.3-0.9-0.6-1.3-1c-0.3-0.4-0.4-0.9-0.4-1.4c0-0.8,0.4-1.5,1-2c0.6-0.5,1.6-0.9,2.8-1l2.3-0.4V55c0-0.5-0.1-0.8-0.3-1
			c-0.1-0.3-0.5-0.3-0.9-0.3c-0.3,0-0.4,0-0.6,0.1c-0.1,0.1-0.4,0.3-0.5,0.4c-0.1,0.1-0.3,0.3-0.4,0.3c0,0.1-0.1,0.1-0.1,0.1H151
			c-0.1,0-0.3,0-0.3-0.1c-0.1-0.1-0.1-0.1-0.1-0.3c0-0.4,0.1-0.6,0.5-1.1c0.3-0.4,0.8-0.8,1.4-1c0.6-0.3,1.4-0.4,2.4-0.4
			c1.5,0,2.5,0.4,3.3,1c0.8,0.6,1.1,1.5,1.1,2.7v5.4c0,0.1,0,0.3-0.1,0.3c-0.1,0.1-0.3,0.1-0.4,0.1h-2.2c-0.1,0-0.3,0-0.3-0.1
			c-0.1-0.1-0.1-0.3-0.1-0.3v-0.6c-0.3,0.4-0.6,0.6-1.1,0.9C154.5,61.3,153.9,61.5,153.3,61.5 M154.2,59.3c0.5,0,1-0.1,1.3-0.5
			c0.4-0.4,0.5-0.9,0.5-1.5V57l-1.5,0.3c-1,0.3-1.5,0.5-1.5,1.1c0,0.3,0.1,0.5,0.4,0.6C153.5,59.3,153.8,59.3,154.2,59.3
			 M164.9,61.5c-1,0-1.8-0.1-2.4-0.4c-0.6-0.3-1.1-0.6-1.5-1c-0.4-0.4-0.5-0.8-0.5-1c0-0.1,0-0.3,0.1-0.3c0.1-0.1,0.3-0.1,0.3-0.1
			h2.2c0.1,0,0.1,0,0.1,0.1c0.3,0.1,0.4,0.3,0.4,0.3c0.3,0.1,0.4,0.3,0.6,0.4c0.3,0.1,0.4,0.1,0.8,0.1c0.4,0,0.6,0,0.8-0.1
			c0.3-0.1,0.4-0.3,0.4-0.5c0-0.3,0-0.4-0.1-0.5c-0.1-0.1-0.4-0.3-0.6-0.4c-0.4-0.1-0.8-0.3-1.4-0.4c-2-0.4-3.2-1.4-3.2-2.9
			c0-0.5,0.1-1,0.5-1.4c0.4-0.4,0.8-0.8,1.4-1.1c0.6-0.3,1.4-0.4,2.3-0.4c0.9,0,1.6,0.1,2.3,0.4c0.6,0.3,1.1,0.6,1.5,1
			c0.4,0.4,0.5,0.8,0.5,1c0,0.1,0,0.3-0.1,0.3c-0.1,0.1-0.1,0.1-0.3,0.1h-2c-0.1,0-0.3,0-0.3-0.1c-0.1-0.1-0.3-0.1-0.4-0.3
			c-0.3-0.1-0.4-0.3-0.5-0.4c-0.1-0.1-0.4-0.1-0.6-0.1c-0.3,0-0.5,0.1-0.8,0.3c-0.1,0.1-0.3,0.3-0.3,0.5c0,0.1,0,0.4,0.1,0.4
			c0.1,0.1,0.3,0.3,0.6,0.4c0.4,0.1,0.8,0.3,1.4,0.4c1.1,0.3,2,0.5,2.5,1.1c0.5,0.5,0.8,1.1,0.8,1.8c0,0.9-0.4,1.6-1.1,2.2
			C167.4,61.2,166.3,61.5,164.9,61.5"/>
		<path class="st1" d="M77.5,25.9c-1.6,0-3-0.4-4.1-1.3c-1-0.9-1.4-2-1.4-3.7v-7.3c0-0.1,0-0.3,0.1-0.4c0.1-0.1,0.3-0.1,0.4-0.1h2.4
			c0.1,0,0.3,0,0.4,0.1s0.1,0.3,0.1,0.4v7.3c0,0.8,0.1,1.3,0.5,1.6c0.4,0.4,0.9,0.5,1.5,0.5s1.1-0.1,1.5-0.5s0.5-0.9,0.5-1.6v-7.3
			c0-0.1,0-0.3,0.1-0.4c0.1-0.1,0.3-0.1,0.4-0.1h2.4c0.1,0,0.3,0,0.4,0.1c0.1,0.1,0.1,0.3,0.1,0.4v7.3c0,1.6-0.5,2.9-1.4,3.7
			C80.5,25.5,79.2,25.9,77.5,25.9 M85.6,25.8c-0.1,0-0.3,0-0.3-0.1c-0.1-0.1-0.1-0.3-0.1-0.3V13.6c0-0.1,0-0.3,0.1-0.4
			c0.1-0.1,0.3-0.1,0.3-0.1h2.5c0.1,0,0.3,0,0.4,0.1c0.1,0.1,0.1,0.3,0.1,0.4V23H94c0.1,0,0.3,0,0.4,0.1c0.1,0.1,0.1,0.3,0.1,0.4
			v1.9c0,0.1,0,0.3-0.1,0.4c-0.1,0.1-0.3,0.1-0.4,0.1h-8.5V25.8z M96.1,25.8c-0.1,0-0.3,0-0.3-0.1c-0.1-0.1-0.1-0.3-0.1-0.3V13.6
			c0-0.1,0-0.3,0.1-0.4c0.1-0.1,0.3-0.1,0.4-0.1h5.1c1.5,0,2.8,0.4,3.7,1c0.9,0.8,1.4,1.8,1.4,3.2c0,1.4-0.5,2.4-1.4,3
			c-0.9,0.6-2.2,1-3.7,1h-2v3.9c0,0.1,0,0.3-0.1,0.3c-0.1,0.1-0.3,0.1-0.4,0.1h-2.7V25.8z M101.1,18.8c0.5,0,0.9-0.1,1.1-0.4
			c0.3-0.3,0.4-0.6,0.4-1.1c0-0.5-0.1-0.9-0.4-1.1c-0.3-0.3-0.6-0.4-1.1-0.4h-2v3C99.1,18.8,101.1,18.8,101.1,18.8z M113,25.9
			c-1.8,0-3-0.4-4.1-1.3c-1-0.9-1.5-2-1.5-3.7c0-0.4,0-0.9,0-1.6c0-0.8,0-1.3,0-1.6c0-1.5,0.6-2.7,1.5-3.5c1-0.9,2.4-1.3,4.1-1.3
			c1.1,0,2.2,0.1,3,0.5c0.9,0.4,1.5,0.9,2,1.4c0.5,0.6,0.6,1.1,0.8,1.8c0,0.1,0,0.3-0.1,0.3c-0.1,0.1-0.1,0.1-0.3,0.1h-2.8
			c-0.1,0-0.3,0-0.3-0.1c-0.1,0-0.1-0.1-0.1-0.1c-0.1-0.4-0.4-0.6-0.6-0.9c-0.4-0.3-0.8-0.4-1.4-0.4c-1.4,0-2.2,0.8-2.2,2.2
			c0,0.4,0,0.9,0,1.5c0,0.6,0,1.3,0,1.5c0,1.5,0.8,2.3,2.2,2.3c0.8,0,1.3-0.1,1.6-0.5c0.4-0.4,0.6-0.9,0.6-1.6v-0.4h-1.9
			c-0.1,0-0.3,0-0.4-0.1c-0.1-0.1-0.1-0.3-0.1-0.4v-1.4c0-0.1,0-0.3,0.1-0.4c0.1-0.1,0.3-0.1,0.4-0.1h4.6c0.1,0,0.3,0,0.4,0.1
			c0.1,0.6,0.1,0.8,0.1,0.9v2c0,1-0.3,1.9-0.8,2.7c-0.5,0.8-1.1,1.3-2,1.6C115.2,25.8,114.2,25.9,113,25.9 M125.8,25.9
			c-1.8,0-3-0.4-4.1-1.3c-1-0.9-1.5-2-1.5-3.7c0-0.4,0-0.9,0-1.6c0-0.8,0-1.3,0-1.6c0-1.5,0.6-2.8,1.5-3.7c1-0.9,2.3-1.3,4.1-1.3
			c1,0,2,0.1,2.9,0.5c0.9,0.4,1.5,0.9,2,1.5c0.5,0.6,0.8,1.4,0.8,2.3c0,0.1,0,0.3-0.1,0.3c-0.1,0.1-0.1,0.1-0.3,0.1h-2.5
			c-0.1,0-0.3,0-0.4-0.1c-0.1-0.1-0.1-0.1-0.3-0.4c-0.1-0.6-0.4-1-0.8-1.3c-0.4-0.3-0.8-0.4-1.4-0.4c-1.4,0-2,0.8-2.2,2.3
			c0,0.4,0,0.8,0,1.5c0,0.6,0,1.1,0,1.5c0,1.5,0.8,2.3,2.2,2.3c0.5,0,1-0.1,1.4-0.4c0.4-0.3,0.6-0.6,0.8-1.3c0-0.1,0.1-0.3,0.3-0.4
			c0.1-0.1,0.3-0.1,0.4-0.1h2.5c0.1,0,0.3,0,0.3,0.1c0.1,0.1,0.1,0.1,0.1,0.3c0,0.9-0.3,1.6-0.8,2.3c-0.5,0.6-1.1,1.1-2,1.5
			C127.8,25.8,126.8,25.9,125.8,25.9"/>
	</g>
</g>
</svg>
