<?xml version="1.0" encoding="utf-8"?>
<!-- Generator: Adobe Illustrator 19.2.0, SVG Export Plug-In . SVG Version: 6.00 Build 0)  -->
<svg version="1.1" id="Capa_1" xmlns="http://www.w3.org/2000/svg" xmlns:xlink="http://www.w3.org/1999/xlink" x="0px" y="0px"
	 width="267px" height="83.8px" viewBox="0 0 267 83.8" style="enable-background:new 0 0 267 83.8;" xml:space="preserve">
<style type="text/css">
	.st0{fill:#FF8A00;}
	.st1{fill:#065184;}
</style>
<g>
	<g>
		<path class="st0" d="M2.6,30.9H0.1V79h2.5V30.9z"/>
	</g>
	<g>
		<path class="st1" d="M20.4,48.8c0.9,0,1.6,0.1,2.3,0.4c0.6,0.3,1.1,0.5,1.6,1c0.4,0.4,0.8,0.9,1,1.5c0.3,0.6,0.4,1.3,0.4,2
			c0,0.9,0,1.8,0,2.7c0,0.8-0.1,1.4-0.4,2c-0.3,0.6-0.5,1.1-1,1.5c-0.4,0.4-1,0.8-1.6,1c-0.6,0.3-1.4,0.4-2.3,0.4h-4.6
			c-0.1,0-0.3,0-0.4-0.1c-0.1-0.1-0.1-0.3-0.1-0.4V49.3c0-0.1,0-0.3,0.1-0.4c0.1-0.1,0.3-0.1,0.4-0.1H20.4z M23.3,53.7
			c0-0.4-0.1-0.8-0.3-1c-0.1-0.4-0.3-0.6-0.5-0.9c-0.3-0.3-0.5-0.4-0.9-0.6c-0.4-0.1-0.8-0.3-1.3-0.3H18v8.2h2.5
			c0.5,0,0.9-0.1,1.3-0.3c0.4-0.1,0.6-0.4,0.9-0.5c0.3-0.3,0.4-0.5,0.5-0.9c0.1-0.4,0.3-0.6,0.3-1C23.3,55.5,23.3,54.6,23.3,53.7z"
			/>
		<path class="st1" d="M27.3,56.6c0-0.6,0.1-1.3,0.3-1.9c0.3-0.6,0.5-1.1,0.9-1.5s0.9-0.8,1.4-1c0.5-0.3,1.1-0.4,1.8-0.4
			s1.3,0.1,1.8,0.4c0.5,0.3,1,0.6,1.4,1s0.6,0.9,0.9,1.4c0.3,0.5,0.3,1.1,0.3,1.8v0.8c0,0.1,0,0.3-0.1,0.4s-0.3,0.1-0.4,0.1h-5.9
			c0,0.3,0,0.5,0.1,0.8c0.1,0.3,0.3,0.4,0.5,0.5c0.3,0.1,0.4,0.3,0.6,0.4c0.3,0.1,0.5,0.1,0.8,0.1c0.4,0,0.6,0,0.9-0.1
			s0.4-0.1,0.6-0.3c0.1-0.1,0.3-0.1,0.4-0.3c0.1,0,0.3,0,0.4,0h1.4c0.1,0,0.3,0,0.4,0.1c0.1,0.1,0.1,0.3,0.1,0.4
			c0,0.1-0.1,0.4-0.3,0.6c-0.1,0.3-0.4,0.5-0.8,0.8c-0.4,0.3-0.8,0.5-1.3,0.6c-0.5,0.1-1.1,0.3-1.8,0.3s-1.3-0.1-1.8-0.4
			c-0.5-0.3-1-0.5-1.4-1c-0.4-0.4-0.6-0.9-0.9-1.5C27.3,58,27.3,57.4,27.3,56.6z M31.6,54c-0.4,0-0.6,0-0.9,0.1
			c-0.3,0.1-0.5,0.3-0.6,0.4c-0.1,0.1-0.3,0.4-0.4,0.5c-0.1,0.3-0.1,0.4-0.1,0.5h4.1c0-0.1-0.1-0.4-0.1-0.5
			c-0.1-0.3-0.1-0.4-0.4-0.5c-0.1-0.1-0.4-0.3-0.6-0.4C32.4,54.1,32,54,31.6,54z"/>
		<path class="st1" d="M42.9,61.6c-0.4,0-0.8,0-1-0.1c-0.3-0.1-0.5-0.1-0.8-0.3c-0.3-0.1-0.4-0.3-0.5-0.4c-0.1-0.1-0.3-0.3-0.4-0.4
			v3.8c0,0.1,0,0.3-0.1,0.4c-0.1,0.1-0.3,0.1-0.4,0.1h-1.4c-0.1,0-0.3,0-0.4-0.1c-0.1-0.1-0.1-0.3-0.1-0.4V52.5c0-0.1,0-0.3,0.1-0.4
			c0.1-0.1,0.3-0.1,0.4-0.1h1.4c0.1,0,0.3,0,0.4,0.1c0.1,0.1,0.1,0.3,0.1,0.4v0.4c0.1-0.1,0.3-0.3,0.4-0.4s0.4-0.3,0.5-0.4
			c0.3-0.1,0.5-0.3,0.8-0.3c0.3-0.1,0.6-0.1,1-0.1c0.6,0,1.1,0.1,1.6,0.4c0.5,0.3,0.9,0.5,1.3,0.9s0.6,0.9,0.8,1.4
			c0.3,0.5,0.3,1,0.4,1.6c0,0.1,0,0.4,0,0.6c0,0.3,0,0.5,0,0.6c0,0.5-0.1,1.1-0.4,1.6c-0.3,0.5-0.5,1-0.8,1.4
			c-0.4,0.4-0.8,0.8-1.3,0.9C44,61.5,43.5,61.6,42.9,61.6z M44.5,57.1c0-0.4,0-0.6,0-1c-0.1-0.8-0.3-1.4-0.8-1.6
			c-0.4-0.4-0.9-0.5-1.5-0.5c-0.6,0-1.1,0.1-1.5,0.5c-0.4,0.4-0.6,0.9-0.6,1.5c0,0.1,0,0.4,0,0.6c0,0.3,0,0.5,0,0.6
			c0,0.6,0.3,1.1,0.6,1.5c0.4,0.4,0.9,0.5,1.5,0.5c0.6,0,1.1-0.1,1.5-0.5C44.3,58.5,44.5,58,44.5,57.1z"/>
		<path class="st1" d="M48.8,54.4c0-0.3,0.1-0.5,0.4-0.8c0.1-0.3,0.4-0.5,0.8-0.8c0.3-0.3,0.8-0.5,1.1-0.6s1-0.3,1.6-0.3
			s1.1,0.1,1.6,0.3c0.5,0.1,0.9,0.4,1.3,0.8c0.4,0.3,0.6,0.8,0.8,1.1c0.3,0.5,0.3,1,0.3,1.6v5.3c0,0.1,0,0.3-0.1,0.4
			c-0.1,0.1-0.3,0.1-0.4,0.1h-1.4c-0.1,0-0.3,0-0.4-0.1c-0.1-0.1-0.1-0.3-0.1-0.4v-0.6c-0.3,0.4-0.6,0.6-1.1,0.9
			c-0.5,0.3-1,0.4-1.8,0.4c-0.5,0-1-0.1-1.4-0.3c-0.4-0.1-0.8-0.4-1-0.6c-0.3-0.3-0.5-0.5-0.6-0.9c-0.1-0.4-0.3-0.8-0.3-1.1
			c0-0.9,0.3-1.5,0.9-1.9c0.6-0.5,1.4-0.8,2.4-0.9l2.9-0.5c0-0.5-0.1-0.9-0.5-1c-0.4-0.3-0.8-0.3-1.1-0.3c-0.3,0-0.5,0-0.8,0.1
			c-0.1,0.1-0.4,0.3-0.5,0.4c-0.1,0.1-0.3,0.1-0.3,0.3c-0.1,0-0.1,0-0.3,0h-1.6c-0.1,0-0.3,0-0.3-0.1C48.8,54.5,48.8,54.5,48.8,54.4
			z M51.8,59.4c0.4,0,0.8,0,1.1-0.1c0.3-0.1,0.6-0.3,0.8-0.5c0.3-0.3,0.4-0.4,0.5-0.6c0.1-0.3,0.1-0.5,0.1-0.8v-0.1l-2.4,0.4
			c-0.5,0.1-0.9,0.3-1,0.4c-0.3,0.1-0.4,0.4-0.4,0.6c0,0.3,0.1,0.4,0.4,0.5C51.1,59.3,51.5,59.4,51.8,59.4z"/>
		<path class="st1" d="M63.3,54.2c-0.8,0-1.3,0.1-1.5,0.5c-0.4,0.4-0.5,0.9-0.5,1.5v4.7c0,0.1,0,0.3-0.1,0.4s-0.3,0.1-0.4,0.1h-1.4
			c-0.1,0-0.3,0-0.4-0.1c-0.1-0.1-0.1-0.3-0.1-0.4v-8.4c0-0.1,0-0.3,0.1-0.4c0.1-0.1,0.3-0.1,0.4-0.1h1.4c0.1,0,0.3,0,0.4,0.1
			s0.1,0.3,0.1,0.4V53c0.3-0.3,0.6-0.5,1-0.6c0.4-0.1,0.8-0.3,1.4-0.3h0.8c0.1,0,0.3,0,0.4,0.1s0.1,0.3,0.1,0.4v1.1
			c0,0.1,0,0.3-0.1,0.4c-0.1,0.1-0.3,0.1-0.4,0.1H63.3z"/>
		<path class="st1" d="M69.4,58c0,0.4,0.1,0.6,0.3,0.9c0.3,0.3,0.5,0.4,1.1,0.4h1.1c0.1,0,0.3,0,0.4,0.1s0.1,0.3,0.1,0.4v1.1
			c0,0.1,0,0.3-0.1,0.4s-0.3,0.1-0.4,0.1h-1.3c-1.1,0-2-0.3-2.5-0.8c-0.6-0.5-0.9-1.4-0.9-2.5v-3.8h-1.1c-0.1,0-0.3,0-0.4-0.1
			s-0.1-0.3-0.1-0.4v-1.1c0-0.1,0-0.3,0.1-0.4s0.3-0.1,0.4-0.1h1.1V49c0-0.1,0-0.3,0.1-0.4c0.1-0.1,0.3-0.1,0.4-0.1h1.4
			c0.1,0,0.3,0,0.4,0.1c0.1,0.1,0.1,0.3,0.1,0.4V52h2.3c0.1,0,0.3,0,0.4,0.1s0.1,0.3,0.1,0.4v1.1c0,0.1,0,0.3-0.1,0.4
			s-0.3,0.1-0.4,0.1h-2.3V58H69.4z"/>
		<path class="st1" d="M74,54.4c0-0.3,0.1-0.5,0.4-0.8c0.1-0.3,0.4-0.5,0.8-0.8c0.3-0.3,0.8-0.5,1.1-0.6c0.4-0.1,1-0.3,1.6-0.3
			s1.1,0.1,1.6,0.3c0.5,0.1,0.9,0.4,1.3,0.8c0.4,0.3,0.6,0.8,0.8,1.1c0.3,0.5,0.3,1,0.3,1.6v5.3c0,0.1,0,0.3-0.1,0.4
			c-0.1,0.1-0.3,0.1-0.4,0.1H80c-0.1,0-0.3,0-0.4-0.1c-0.1-0.1-0.1-0.3-0.1-0.4v-0.6c-0.3,0.4-0.6,0.6-1.1,0.9
			c-0.5,0.3-1,0.4-1.8,0.4c-0.5,0-1-0.1-1.4-0.3c-0.4-0.1-0.8-0.4-1-0.6c-0.3-0.3-0.5-0.5-0.6-0.9c-0.1-0.4-0.3-0.8-0.3-1.1
			c0-0.9,0.3-1.5,0.9-1.9c0.6-0.5,1.4-0.8,2.4-0.9l2.9-0.5c0-0.5-0.1-0.9-0.5-1c-0.4-0.3-0.8-0.3-1.1-0.3c-0.3,0-0.5,0-0.8,0.1
			c-0.1,0.1-0.4,0.3-0.5,0.4c-0.1,0.1-0.3,0.1-0.3,0.3c-0.1,0-0.1,0-0.3,0h-1.6c-0.1,0-0.3,0-0.3-0.1C74,54.5,73.9,54.5,74,54.4z
			 M76.9,59.4c0.4,0,0.8,0,1.1-0.1c0.3-0.1,0.6-0.3,0.8-0.5c0.3-0.3,0.4-0.4,0.5-0.6c0.1-0.3,0.1-0.5,0.1-0.8v-0.1l-2.4,0.4
			c-0.5,0.1-0.9,0.3-1,0.4c-0.3,0.1-0.4,0.4-0.4,0.6c0,0.3,0.1,0.4,0.4,0.5C76.3,59.3,76.7,59.4,76.9,59.4z"/>
		<path class="st1" d="M86.4,53c0.3-0.4,0.6-0.6,1-0.8s0.9-0.3,1.3-0.3c0.8,0,1.4,0.1,1.9,0.4c0.5,0.3,0.9,0.6,1.1,1.1
			c0.1-0.3,0.4-0.5,0.6-0.6c0.3-0.3,0.5-0.4,0.8-0.5c0.3-0.1,0.5-0.3,0.8-0.3c0.3-0.1,0.5-0.1,0.8-0.1c0.6,0,1.3,0.1,1.6,0.4
			c0.5,0.3,0.8,0.5,1.1,0.9c0.3,0.4,0.5,0.9,0.6,1.4c0.1,0.5,0.1,1,0.1,1.6v4.8c0,0.1,0,0.3-0.1,0.4s-0.3,0.1-0.4,0.1h-1.4
			c-0.1,0-0.3,0-0.4-0.1s-0.1-0.3-0.1-0.4v-4.7c0-0.8-0.1-1.4-0.5-1.6c-0.3-0.4-0.8-0.5-1.3-0.5c-0.5,0-0.9,0.1-1.3,0.5
			c-0.4,0.3-0.5,0.9-0.5,1.6v4.8c0,0.1,0,0.3-0.1,0.4s-0.3,0.1-0.4,0.1h-1.4c-0.1,0-0.3,0-0.4-0.1c-0.1-0.1-0.1-0.3-0.1-0.4v-4.7
			c0-0.8-0.1-1.4-0.5-1.6c-0.3-0.4-0.8-0.5-1.3-0.5s-0.9,0.1-1.3,0.5c-0.4,0.4-0.5,0.9-0.5,1.6v4.7c0,0.1,0,0.3-0.1,0.4
			s-0.3,0.1-0.4,0.1h-1.4c-0.1,0-0.3,0-0.4-0.1s-0.1-0.3-0.1-0.4v-8.4c0-0.1,0-0.3,0.1-0.4s0.3-0.1,0.4-0.1h1.4c0.1,0,0.3,0,0.4,0.1
			s0.1,0.3,0.1,0.4V53H86.4z"/>
		<path class="st1" d="M100,56.6c0-0.6,0.1-1.3,0.3-1.9c0.3-0.6,0.5-1.1,0.9-1.5s0.9-0.8,1.4-1c0.5-0.3,1.1-0.4,1.8-0.4
			s1.3,0.1,1.8,0.4c0.5,0.3,1,0.6,1.4,1s0.6,0.9,0.9,1.4c0.3,0.5,0.3,1.1,0.3,1.8v0.8c0,0.1,0,0.3-0.1,0.4s-0.3,0.1-0.4,0.1h-5.9
			c0,0.3,0,0.5,0.1,0.8c0.1,0.3,0.3,0.4,0.5,0.5c0.3,0.1,0.4,0.3,0.6,0.4c0.3,0.1,0.5,0.1,0.8,0.1c0.4,0,0.6,0,0.9-0.1
			s0.4-0.1,0.6-0.3c0.1-0.1,0.3-0.1,0.4-0.3c0.1,0,0.3,0,0.4,0h1.4c0.1,0,0.3,0,0.4,0.1c0.1,0.1,0.1,0.3,0.1,0.4
			c0,0.1-0.1,0.4-0.3,0.6c-0.1,0.3-0.4,0.5-0.8,0.8c-0.4,0.3-0.8,0.5-1.3,0.6c-0.5,0.1-1.1,0.3-1.8,0.3s-1.3-0.1-1.8-0.4
			c-0.5-0.3-1-0.5-1.4-1c-0.4-0.4-0.6-0.9-0.9-1.5C100,58,100,57.4,100,56.6z M104.3,54c-0.4,0-0.6,0-0.9,0.1
			c-0.3,0.1-0.5,0.3-0.6,0.4s-0.3,0.4-0.4,0.5c-0.1,0.3-0.1,0.4-0.1,0.5h4.1c0-0.1-0.1-0.4-0.1-0.5c-0.1-0.3-0.1-0.4-0.4-0.5
			c-0.1-0.1-0.4-0.3-0.6-0.4C105,54.1,104.7,54,104.3,54z"/>
		<path class="st1" d="M119.4,60.8c0,0.1,0,0.3-0.1,0.4s-0.3,0.1-0.4,0.1h-1.4c-0.1,0-0.3,0-0.4-0.1c-0.1-0.1-0.1-0.3-0.1-0.4v-4.6
			c0-0.8-0.1-1.3-0.5-1.8c-0.4-0.4-0.9-0.6-1.5-0.6s-1.1,0.3-1.5,0.6c-0.4,0.4-0.5,1-0.5,1.8v4.6c0,0.1,0,0.3-0.1,0.4
			c-0.1,0.1-0.3,0.1-0.4,0.1H111c-0.1,0-0.3,0-0.4-0.1c-0.1-0.1-0.1-0.3-0.1-0.4v-8.4c0-0.1,0-0.3,0.1-0.4c0.1-0.1,0.3-0.1,0.4-0.1
			h1.4c0.1,0,0.3,0,0.4,0.1c0.1,0.1,0.1,0.3,0.1,0.4v0.4c0.3-0.3,0.6-0.5,1.1-0.8c0.4-0.3,0.9-0.3,1.5-0.3c0.8,0,1.4,0.1,1.8,0.4
			c0.5,0.3,0.9,0.5,1.1,0.9c0.3,0.4,0.5,0.9,0.6,1.4s0.1,1,0.1,1.6v4.7H119.4z"/>
		<path class="st1" d="M124.5,58c0,0.4,0.1,0.6,0.3,0.9c0.3,0.3,0.5,0.4,1.1,0.4h1.1c0.1,0,0.3,0,0.4,0.1c0.1,0.1,0.1,0.3,0.1,0.4
			v1.1c0,0.1,0,0.3-0.1,0.4s-0.3,0.1-0.4,0.1h-1.3c-1.1,0-2-0.3-2.5-0.8c-0.6-0.5-0.9-1.4-0.9-2.5v-3.8h-1.1c-0.1,0-0.3,0-0.4-0.1
			c-0.1-0.1-0.1-0.3-0.1-0.4v-1.1c0-0.1,0-0.3,0.1-0.4c0.1-0.1,0.3-0.1,0.4-0.1h1.1V49c0-0.1,0-0.3,0.1-0.4c0.1-0.1,0.3-0.1,0.4-0.1
			h1.4c0.1,0,0.3,0,0.4,0.1c0.1,0.1,0.1,0.3,0.1,0.4V52h2.3c0.1,0,0.3,0,0.4,0.1c0.1,0.1,0.1,0.3,0.1,0.4v1.1c0,0.1,0,0.3-0.1,0.4
			s-0.3,0.1-0.4,0.1h-2.3V58H124.5z"/>
		<path class="st1" d="M133.3,51.8c0.6,0,1.3,0.1,1.8,0.3c0.5,0.3,1,0.5,1.4,0.9c0.4,0.4,0.8,0.8,0.9,1.3c0.3,0.5,0.4,1,0.4,1.5
			c0,0.1,0,0.3,0,0.4c0,0.1,0,0.4,0,0.5c0,0.1,0,0.4,0,0.5c0,0.1,0,0.3,0,0.4c0,0.5-0.1,1-0.4,1.5c-0.3,0.5-0.5,0.9-0.9,1.3
			c-0.4,0.4-0.9,0.6-1.4,0.9c-0.5,0.3-1.1,0.3-1.8,0.3s-1.3-0.1-1.8-0.3c-0.5-0.3-1-0.5-1.4-0.9c-0.4-0.4-0.6-0.8-0.9-1.3
			c-0.3-0.5-0.4-1-0.4-1.5c0-0.1,0-0.3,0-0.4c0-0.1,0-0.4,0-0.5s0-0.4,0-0.5s0-0.3,0-0.4c0-0.5,0.1-1,0.4-1.5
			c0.3-0.5,0.5-0.9,0.9-1.3c0.4-0.4,0.9-0.6,1.4-0.9C132,52,132.5,51.8,133.3,51.8z M135.4,55.9c0-0.4-0.1-0.6-0.3-0.9
			c-0.1-0.3-0.3-0.4-0.5-0.6c-0.3-0.3-0.5-0.3-0.8-0.3s-0.5-0.1-0.8-0.1s-0.5,0-0.8,0.1c-0.3,0-0.5,0.1-0.6,0.3
			c-0.3,0.1-0.4,0.4-0.5,0.6c-0.1,0.3-0.3,0.5-0.3,0.9c0,0.1,0,0.3,0,0.4s0,0.3,0,0.5c0,0.3,0,0.3,0,0.5c0,0.1,0,0.3,0,0.4
			c0,0.4,0.1,0.6,0.3,0.9c0.1,0.3,0.3,0.4,0.5,0.6c0.3,0.1,0.4,0.3,0.6,0.3s0.5,0.1,0.8,0.1s0.5,0,0.8-0.1c0.3,0,0.5-0.1,0.6-0.3
			c0.1-0.1,0.4-0.4,0.5-0.6c0.1-0.3,0.3-0.5,0.3-0.9c0-0.1,0-0.3,0-0.4s0-0.3,0-0.5c0-0.3,0-0.3,0-0.5
			C135.4,56.1,135.4,56,135.4,55.9z"/>
		<path class="st1" d="M147.3,51.8c0.4,0,0.8,0,1,0.1c0.3,0.1,0.5,0.1,0.8,0.3c0.3,0.1,0.4,0.3,0.5,0.4s0.3,0.3,0.4,0.4v-3.8
			c0-0.1,0-0.3,0.1-0.4s0.3-0.1,0.4-0.1h1.4c0.1,0,0.3,0,0.4,0.1c0.1,0.1,0.1,0.3,0.1,0.4v11.8c0,0.1,0,0.3-0.1,0.4
			c-0.1,0.1-0.3,0.1-0.4,0.1h-1.4c-0.1,0-0.3,0-0.4-0.1c-0.1-0.1-0.1-0.3-0.1-0.4v-0.5c-0.1,0.1-0.3,0.3-0.4,0.4
			c-0.1,0.1-0.4,0.3-0.5,0.4c-0.3,0.1-0.5,0.3-0.8,0.3c-0.3,0.1-0.6,0.1-1,0.1c-0.6,0-1.1-0.1-1.6-0.4c-0.5-0.3-0.9-0.5-1.3-0.9
			s-0.6-0.9-0.8-1.4c-0.3-0.5-0.3-1-0.4-1.6c0-0.1,0-0.4,0-0.6c0-0.3,0-0.5,0-0.6c0-0.5,0.1-1.1,0.4-1.6c0.3-0.5,0.5-1,0.8-1.4
			c0.4-0.4,0.8-0.8,1.3-0.9S146.7,51.8,147.3,51.8z M145.6,56.1c0,0.4,0,0.6,0,1c0.1,0.8,0.3,1.4,0.8,1.6c0.4,0.4,0.9,0.5,1.5,0.5
			s1.1-0.1,1.5-0.5c0.4-0.4,0.6-0.9,0.6-1.5c0-0.1,0-0.4,0-0.6c0-0.3,0-0.5,0-0.6c0-0.6-0.3-1.1-0.6-1.5s-0.9-0.5-1.5-0.5
			s-1.1,0.1-1.5,0.5C145.9,54.9,145.7,55.4,145.6,56.1z"/>
		<path class="st1" d="M154.2,56.6c0-0.6,0.1-1.3,0.3-1.9c0.3-0.6,0.5-1.1,0.9-1.5c0.4-0.4,0.9-0.8,1.4-1c0.5-0.3,1.1-0.4,1.8-0.4
			s1.3,0.1,1.8,0.4c0.5,0.3,1,0.6,1.4,1c0.4,0.4,0.6,0.9,0.9,1.4c0.3,0.5,0.3,1.1,0.3,1.8v0.8c0,0.1,0,0.3-0.1,0.4s-0.3,0.1-0.4,0.1
			h-5.9c0,0.3,0,0.5,0.1,0.8c0.1,0.3,0.3,0.4,0.5,0.5c0.3,0.1,0.4,0.3,0.6,0.4s0.5,0.1,0.8,0.1c0.4,0,0.6,0,0.9-0.1
			c0.3-0.1,0.4-0.1,0.6-0.3c0.1-0.1,0.3-0.1,0.4-0.3c0.1,0,0.3,0,0.4,0h1.4c0.1,0,0.3,0,0.4,0.1c0.1,0.1,0.1,0.3,0.1,0.4
			c0,0.1-0.1,0.4-0.3,0.6c-0.1,0.3-0.4,0.5-0.8,0.8c-0.4,0.3-0.8,0.5-1.3,0.6s-1.1,0.3-1.8,0.3s-1.3-0.1-1.8-0.4
			c-0.5-0.3-1-0.5-1.4-1c-0.4-0.4-0.6-0.9-0.9-1.5C154.3,58,154.2,57.4,154.2,56.6z M158.6,54c-0.4,0-0.6,0-0.9,0.1
			c-0.3,0.1-0.5,0.3-0.6,0.4s-0.3,0.4-0.4,0.5c-0.1,0.3-0.1,0.4-0.1,0.5h4.1c0-0.1-0.1-0.4-0.1-0.5c-0.1-0.3-0.1-0.4-0.4-0.5
			c-0.1-0.1-0.4-0.3-0.6-0.4C159.2,54.1,159,54,158.6,54z"/>
	</g>
	<g>
		<path class="st1" d="M21.9,66.5c0.3,0,0.4,0.1,0.5,0.3c0.1,0.1,0.3,0.3,0.3,0.4l3.9,11.3c0,0.1,0.1,0.3,0.1,0.3
			c0,0.1,0,0.3-0.1,0.3C26.4,79,26.4,79,26.3,79H24c-0.3,0-0.4,0-0.5-0.1c-0.1-0.1-0.1-0.3-0.1-0.3l-0.5-1.5h-4.8l-0.5,1.5
			c0,0.1-0.1,0.3-0.1,0.3S17.2,79,17,79h-2.3c-0.1,0-0.3,0-0.3-0.1c-0.1-0.1-0.1-0.1-0.1-0.3c0,0,0-0.1,0.1-0.3l3.9-11.3
			c0-0.1,0.1-0.3,0.3-0.4c0.1-0.1,0.3-0.3,0.5-0.3C19.1,66.5,21.9,66.5,21.9,66.5z M19,74.4h2.9l-1.4-4.3L19,74.4z"/>
		<path class="st1" d="M37.3,78.5c0,0.1,0,0.3-0.1,0.4C37.1,79,37,79,36.8,79h-2.3c-0.1,0-0.3,0-0.4-0.1C34,78.8,34,78.7,34,78.5V74
			c0-0.5-0.1-0.9-0.4-1.3c-0.3-0.3-0.6-0.5-1.1-0.5c-0.5,0-0.9,0.1-1.1,0.5C31.1,73,31,73.5,31,74v4.6c0,0.1,0,0.3-0.1,0.4
			C30.7,79,30.6,79,30.5,79h-2.3c-0.1,0-0.3,0-0.4-0.1c-0.1-0.1-0.1-0.3-0.1-0.4v-8.4c0-0.1,0-0.3,0.1-0.4c0.1-0.1,0.3-0.1,0.4-0.1
			h2.2c0.1,0,0.3,0,0.4,0.1c0.1,0.1,0.1,0.3,0.1,0.4v0.4c0.1-0.1,0.3-0.3,0.4-0.4c0.1-0.1,0.4-0.3,0.5-0.4c0.3-0.1,0.4-0.1,0.8-0.3
			c0.3-0.1,0.6-0.1,0.9-0.1c0.6,0,1.1,0.1,1.5,0.3c0.5,0.1,0.9,0.4,1.3,0.8s0.6,0.8,0.8,1.3c0.3,0.5,0.3,1.1,0.3,1.8v5.1H37.3z"/>
		<path class="st1" d="M38.6,76.4c0-0.8,0.3-1.4,0.9-1.9c0.6-0.5,1.6-0.9,2.9-1.1l2.2-0.4c0-0.3-0.1-0.5-0.3-0.8
			c-0.1-0.1-0.4-0.3-0.8-0.3c-0.3,0-0.5,0-0.6,0.1c-0.1,0.1-0.3,0.1-0.4,0.3c-0.1,0.1-0.3,0.1-0.3,0.1c-0.1,0-0.3,0-0.4,0h-2.3
			c-0.1,0-0.3,0-0.3-0.1c-0.1-0.1-0.1-0.1-0.1-0.3c0-0.3,0.1-0.5,0.4-0.9c0.3-0.3,0.5-0.6,0.9-0.9s0.9-0.5,1.4-0.6
			c0.5-0.1,1.1-0.3,1.6-0.3c0.8,0,1.4,0.1,1.9,0.3c0.5,0.1,1,0.4,1.4,0.8c0.4,0.3,0.6,0.6,0.8,1.1c0.1,0.4,0.3,0.9,0.3,1.4v5.4
			c0,0.1,0,0.3-0.1,0.4c-0.1,0.1-0.3,0.1-0.4,0.1h-2.3c-0.1,0-0.3,0-0.4-0.1c-0.1-0.1-0.1-0.3-0.1-0.4v-0.5c-0.3,0.4-0.6,0.6-1,0.9
			c-0.4,0.3-1,0.3-1.6,0.3c-0.5,0-1-0.1-1.4-0.3c-0.4-0.1-0.8-0.4-1-0.6c-0.3-0.3-0.5-0.5-0.6-0.9C38.6,77.1,38.6,76.8,38.6,76.4z
			 M42.6,76.8c0.3,0,0.5,0,0.8-0.1c0.3-0.1,0.4-0.3,0.6-0.4c0.1-0.1,0.3-0.4,0.4-0.5c0.1-0.3,0.1-0.4,0.1-0.6l-1.6,0.3
			c-0.4,0-0.6,0.1-0.8,0.3c-0.3,0.1-0.3,0.4-0.3,0.5c0,0.3,0.1,0.4,0.3,0.5C42.1,76.8,42.4,76.8,42.6,76.8z M43.9,65.9
			c0.1-0.1,0.3-0.3,0.4-0.3c0.1,0,0.3,0,0.4,0h2.4c0.3,0,0.4,0.1,0.4,0.4c0,0.1,0,0.1-0.1,0.3l-2.4,2c-0.1,0.1-0.3,0.1-0.3,0.3
			c-0.1,0-0.3,0.1-0.5,0.1h-1.5c-0.3,0-0.3-0.1-0.3-0.3s0-0.1,0.1-0.3L43.9,65.9z"/>
		<path class="st1" d="M52.9,78.5c0,0.1,0,0.3-0.1,0.4C52.6,79,52.5,79,52.4,79h-2.3c-0.1,0-0.3,0-0.4-0.1c-0.1-0.1-0.1-0.3-0.1-0.4
			V66.8c0-0.1,0-0.3,0.1-0.4c0.1-0.1,0.3-0.1,0.4-0.1h2.3c0.1,0,0.3,0,0.4,0.1c0.1,0.1,0.1,0.3,0.1,0.4V78.5z"/>
		<path class="st1" d="M58,68.3c0,0.1,0,0.3-0.1,0.4c-0.1,0.1-0.3,0.1-0.4,0.1h-2.3c-0.1,0-0.3,0-0.4-0.1c-0.1-0.1-0.1-0.3-0.1-0.4
			v-1.8c0-0.1,0-0.3,0.1-0.4c0.1-0.1,0.3-0.1,0.4-0.1h2.3c0.1,0,0.3,0,0.4,0.1c0.1,0.1,0.1,0.3,0.1,0.4V68.3z M58,78.5
			c0,0.1,0,0.3-0.1,0.4C57.7,79,57.6,79,57.5,79h-2.3c-0.1,0-0.3,0-0.4-0.1c-0.1-0.1-0.1-0.3-0.1-0.4v-8.4c0-0.1,0-0.3,0.1-0.4
			c0.1-0.1,0.3-0.1,0.4-0.1h2.3c0.1,0,0.3,0,0.4,0.1c0.1,0.1,0.1,0.3,0.1,0.4V78.5z"/>
		<path class="st1" d="M65.2,76.3c0-0.1,0-0.3-0.1-0.3c-0.1-0.1-0.3-0.1-0.5-0.1c-0.3,0-0.5-0.1-0.9-0.1c-0.4,0-0.8-0.1-1.3-0.3
			c-0.9-0.1-1.6-0.5-2.2-1c-0.5-0.5-0.8-1.1-0.8-2c0-0.4,0.1-0.8,0.3-1.1c0.3-0.4,0.5-0.6,0.9-0.9c0.4-0.3,0.8-0.5,1.3-0.6
			c0.5-0.1,1.1-0.3,1.8-0.3c0.6,0,1.1,0.1,1.8,0.3c0.5,0.1,1,0.4,1.4,0.6s0.6,0.5,0.9,0.8c0.3,0.3,0.4,0.6,0.4,0.9
			c0,0.1,0,0.3-0.1,0.4c-0.1,0.1-0.3,0.1-0.4,0.1h-2.2c-0.1,0-0.3,0-0.3-0.1c-0.1,0-0.1-0.1-0.3-0.3c-0.1-0.1-0.3-0.1-0.4-0.3
			c-0.1,0-0.4-0.1-0.8-0.1c-0.3,0-0.5,0-0.6,0.1c-0.1,0.1-0.3,0.3-0.3,0.4c0,0.1,0,0.3,0.1,0.3c0,0.1,0.1,0.1,0.4,0.1
			c0.1,0,0.4,0.1,0.8,0.1c0.4,0,0.8,0.1,1.3,0.3c1.1,0.1,1.9,0.5,2.4,1.1c0.5,0.5,0.8,1.1,0.8,1.9c0,0.4-0.1,0.8-0.3,1.1
			c-0.3,0.4-0.5,0.6-0.9,0.9c-0.4,0.3-0.9,0.5-1.4,0.6c-0.5,0.1-1.1,0.3-1.9,0.3c-0.8,0-1.4-0.1-1.9-0.3c-0.5-0.1-1-0.4-1.4-0.6
			c-0.4-0.3-0.6-0.5-0.9-0.9c-0.3-0.3-0.3-0.6-0.4-0.9c0-0.1,0-0.3,0.1-0.4c0.1-0.1,0.3-0.1,0.4-0.1h2.3c0.1,0,0.3,0,0.3,0.1
			c0,0.1,0.1,0.1,0.3,0.3c0.1,0.1,0.3,0.1,0.4,0.3c0.1,0.1,0.5,0.1,0.8,0.1c0.4,0,0.6,0,0.9-0.1C65.1,76.5,65.2,76.4,65.2,76.3z"/>
		<path class="st1" d="M73.2,68.3c0,0.1,0,0.3-0.1,0.4c-0.1,0.1-0.3,0.1-0.4,0.1h-2.3c-0.1,0-0.3,0-0.4-0.1
			c-0.1-0.1-0.1-0.3-0.1-0.4v-1.8c0-0.1,0-0.3,0.1-0.4s0.3-0.1,0.4-0.1h2.3c0.1,0,0.3,0,0.4,0.1s0.1,0.3,0.1,0.4V68.3z M73.2,78.5
			c0,0.1,0,0.3-0.1,0.4C72.9,79,72.8,79,72.6,79h-2.3c-0.1,0-0.3,0-0.4-0.1c-0.1-0.1-0.1-0.3-0.1-0.4v-8.4c0-0.1,0-0.3,0.1-0.4
			c0.1-0.1,0.3-0.1,0.4-0.1h2.3c0.1,0,0.3,0,0.4,0.1c0.1,0.1,0.1,0.3,0.1,0.4V78.5z"/>
		<path class="st1" d="M80.2,76.3c0-0.1,0-0.3-0.1-0.3c-0.1-0.1-0.3-0.1-0.5-0.1s-0.5-0.1-0.9-0.1s-0.8-0.1-1.3-0.3
			c-0.9-0.1-1.6-0.5-2.2-1s-0.8-1.1-0.8-2c0-0.4,0.1-0.8,0.3-1.1c0.3-0.4,0.5-0.6,0.9-0.9c0.4-0.3,0.8-0.5,1.3-0.6
			c0.5-0.1,1.1-0.3,1.8-0.3s1.1,0.1,1.8,0.3c0.5,0.1,1,0.4,1.4,0.6s0.6,0.5,0.9,0.8s0.4,0.6,0.4,0.9c0,0.1,0,0.3-0.1,0.4
			c-0.1,0.1-0.3,0.1-0.4,0.1h-2.2c-0.1,0-0.3,0-0.3-0.1c-0.1,0-0.1-0.1-0.3-0.3c-0.1-0.1-0.3-0.1-0.4-0.3c-0.1,0-0.4-0.1-0.8-0.1
			c-0.3,0-0.5,0-0.6,0.1c-0.1,0.1-0.3,0.3-0.3,0.4c0,0.1,0,0.3,0.1,0.3c0,0.1,0.1,0.1,0.4,0.1c0.1,0,0.4,0.1,0.8,0.1
			s0.8,0.1,1.3,0.3c1.1,0.1,1.9,0.5,2.4,1.1c0.5,0.5,0.8,1.1,0.8,1.9c0,0.4-0.1,0.8-0.3,1.1c-0.3,0.4-0.5,0.6-0.9,0.9
			c-0.4,0.3-0.9,0.5-1.4,0.6C80.6,78.9,80,79,79.2,79s-1.4-0.1-1.9-0.3c-0.5-0.1-1-0.4-1.4-0.6c-0.4-0.3-0.6-0.5-0.9-0.9
			c-0.3-0.3-0.3-0.6-0.4-0.9c0-0.1,0-0.3,0.1-0.4c0.1-0.1,0.3-0.1,0.4-0.1h2.3c0.1,0,0.3,0,0.3,0.1c0,0.1,0.1,0.1,0.3,0.3
			c0.1,0.1,0.3,0.1,0.4,0.3s0.5,0.1,0.8,0.1c0.4,0,0.6,0,0.9-0.1C80.1,76.5,80.2,76.4,80.2,76.3z"/>
		<path class="st1" d="M98,76.1c0.1,0,0.3,0,0.4,0.1c0.1,0.1,0.1,0.3,0.1,0.4v1.9c0,0.1,0,0.3-0.1,0.4C98.2,79,98.1,79,98,79h-8.5
			c-0.1,0-0.3,0-0.4-0.1C89,78.8,89,78.7,89,78.5V67c0-0.1,0-0.3,0.1-0.4c0.1-0.1,0.3-0.1,0.4-0.1h8.4c0.1,0,0.3,0,0.4,0.1
			c0.1,0.1,0.1,0.3,0.1,0.4v1.9c0,0.1,0,0.3-0.1,0.4s-0.3,0.1-0.4,0.1h-5.6v1.9h5.1c0.1,0,0.3,0,0.4,0.1c0.1,0.1,0.1,0.3,0.1,0.4
			v1.9c0,0.1,0,0.3-0.1,0.4c-0.1,0.1-0.3,0.1-0.4,0.1h-5.1v2H98V76.1z"/>
		<path class="st1" d="M102.9,73.7c0,0.1,0,0.4,0,0.6s0,0.5,0,0.6c0,0.4,0.3,0.8,0.5,1c0.3,0.3,0.6,0.4,1.1,0.4c0.4,0,0.8,0,0.9-0.1
			c0.3-0.1,0.4-0.3,0.5-0.5c0-0.1,0.1-0.1,0.3-0.3c0.1-0.1,0.1-0.1,0.3-0.1h2.4c0.1,0,0.3,0,0.4,0.1c0.1,0.1,0.1,0.3,0.1,0.4
			c0,0.3-0.1,0.5-0.3,0.9c-0.1,0.4-0.4,0.8-0.8,1.1c-0.4,0.4-0.9,0.6-1.4,0.9c-0.6,0.3-1.4,0.4-2.3,0.4c-0.6,0-1.3-0.1-1.9-0.3
			c-0.6-0.3-1.1-0.5-1.5-0.9c-0.4-0.4-0.8-0.8-1-1.3c-0.3-0.5-0.4-1.1-0.4-1.8c0-0.1,0-0.4,0-0.8c0-0.4,0-0.5,0-0.8
			c0-0.6,0.1-1.3,0.4-1.8c0.3-0.5,0.6-0.9,1-1.3c0.4-0.4,0.9-0.6,1.5-0.9s1.3-0.3,1.9-0.3c0.9,0,1.8,0.1,2.3,0.4
			c0.6,0.3,1.1,0.6,1.4,0.9c0.4,0.4,0.6,0.8,0.8,1.1c0.1,0.4,0.3,0.6,0.3,0.9c0,0.1,0,0.3-0.1,0.4c-0.1,0.1-0.3,0.1-0.4,0.1h-2.4
			c-0.1,0-0.3,0-0.3-0.1c-0.1-0.1-0.1-0.1-0.3-0.3c-0.1-0.3-0.3-0.4-0.5-0.5s-0.5-0.1-0.9-0.1c-0.5,0-0.9,0.1-1.1,0.4
			C103.2,73,102.9,73.3,102.9,73.7z"/>
		<path class="st1" d="M120.1,73.7c0,0.1,0,0.4,0,0.6s0,0.5,0,0.6c0,0.6-0.1,1.1-0.4,1.6c-0.3,0.5-0.5,0.9-1,1.3
			c-0.4,0.4-0.9,0.6-1.5,0.9s-1.3,0.4-2,0.4s-1.4-0.1-2-0.4c-0.6-0.3-1.1-0.5-1.5-0.9s-0.8-0.8-1-1.3c-0.3-0.5-0.4-1-0.4-1.6
			c0-0.1,0-0.4,0-0.6s0-0.5,0-0.6c0-0.6,0.1-1.1,0.4-1.6c0.3-0.5,0.6-0.9,1-1.3c0.4-0.4,0.9-0.6,1.5-0.9c0.6-0.3,1.3-0.4,2-0.4
			s1.4,0.1,2,0.4c0.6,0.3,1.1,0.5,1.5,0.9c0.4,0.4,0.8,0.8,1,1.3C119.9,72.6,120,73.1,120.1,73.7z M113.5,75c0,0.5,0.3,0.8,0.5,1
			c0.3,0.3,0.6,0.4,1.1,0.4c0.5,0,0.9-0.1,1.1-0.4c0.3-0.3,0.5-0.6,0.5-1c0-0.1,0-0.4,0-0.6s0-0.4,0-0.6c0-0.5-0.3-0.8-0.5-1
			c-0.3-0.3-0.6-0.4-1.1-0.4c-0.5,0-0.9,0.1-1.1,0.4c-0.3,0.3-0.5,0.6-0.5,1c0,0.1,0,0.4,0,0.6C113.5,74.6,113.5,74.9,113.5,75z"/>
		<path class="st1" d="M131.1,78.5c0,0.1,0,0.3-0.1,0.4c-0.1,0.1-0.3,0.1-0.4,0.1h-2.3c-0.1,0-0.3,0-0.4-0.1
			c-0.1-0.1-0.1-0.3-0.1-0.4V74c0-0.5-0.1-0.9-0.4-1.3c-0.3-0.3-0.6-0.5-1.1-0.5c-0.5,0-0.9,0.1-1.1,0.5c-0.3,0.4-0.4,0.8-0.4,1.3
			v4.6c0,0.1,0,0.3-0.1,0.4c-0.1,0.1-0.3,0.1-0.4,0.1H122c-0.1,0-0.3,0-0.4-0.1c-0.1-0.1-0.1-0.3-0.1-0.4v-8.4c0-0.1,0-0.3,0.1-0.4
			c0.1-0.1,0.3-0.1,0.4-0.1h2.2c0.1,0,0.3,0,0.4,0.1c0.1,0.1,0.1,0.3,0.1,0.4v0.4c0.1-0.1,0.3-0.3,0.4-0.4c0.1-0.1,0.4-0.3,0.5-0.4
			c0.3-0.1,0.4-0.1,0.8-0.3c0.3-0.1,0.6-0.1,0.9-0.1c0.6,0,1.1,0.1,1.5,0.3c0.5,0.1,0.9,0.4,1.3,0.8s0.6,0.8,0.8,1.3
			c0.3,0.5,0.3,1.1,0.3,1.8v5.1H131.1z"/>
		<path class="st1" d="M142.4,73.7c0,0.1,0,0.4,0,0.6s0,0.5,0,0.6c0,0.6-0.1,1.1-0.4,1.6c-0.3,0.5-0.5,0.9-1,1.3
			c-0.4,0.4-0.9,0.6-1.5,0.9s-1.3,0.4-2,0.4s-1.4-0.1-2-0.4c-0.6-0.3-1.1-0.5-1.5-0.9c-0.4-0.4-0.8-0.8-1-1.3
			c-0.3-0.5-0.4-1-0.4-1.6c0-0.1,0-0.4,0-0.6s0-0.5,0-0.6c0-0.6,0.1-1.1,0.4-1.6c0.3-0.5,0.6-0.9,1-1.3c0.4-0.4,0.9-0.6,1.5-0.9
			c0.6-0.3,1.3-0.4,2-0.4s1.4,0.1,2,0.4c0.6,0.3,1.1,0.5,1.5,0.9c0.4,0.4,0.8,0.8,1,1.3C142.3,72.6,142.4,73.1,142.4,73.7z
			 M135.8,75c0,0.5,0.3,0.8,0.5,1c0.3,0.3,0.6,0.4,1.1,0.4s0.9-0.1,1.1-0.4c0.3-0.3,0.5-0.6,0.5-1c0-0.1,0-0.4,0-0.6s0-0.4,0-0.6
			c0-0.5-0.3-0.8-0.5-1c-0.3-0.3-0.6-0.4-1.1-0.4s-0.9,0.1-1.1,0.4c-0.3,0.3-0.5,0.6-0.5,1c0,0.1,0,0.4,0,0.6S135.8,74.9,135.8,75z
			 M137.8,65.9c0.1-0.1,0.3-0.3,0.4-0.3c0.1,0,0.3,0,0.4,0h2.4c0.3,0,0.4,0.1,0.4,0.4c0,0.1,0,0.1-0.1,0.3l-2.4,2
			c-0.1,0.1-0.3,0.1-0.3,0.3c-0.1,0-0.3,0.1-0.5,0.1h-1.5c-0.3,0-0.3-0.1-0.3-0.3s0-0.1,0.1-0.3L137.8,65.9z"/>
		<path class="st1" d="M158.6,78.5c0,0.1,0,0.3-0.1,0.4c-0.1,0.1-0.3,0.1-0.4,0.1h-2.2c-0.1,0-0.3,0-0.4-0.1
			c-0.1-0.1-0.1-0.3-0.1-0.4V74c0-0.6-0.1-1-0.4-1.3c-0.3-0.3-0.5-0.4-1-0.4c-0.4,0-0.8,0.1-1,0.4c-0.3,0.3-0.4,0.6-0.4,1.3v4.6
			c0,0.1,0,0.3-0.1,0.4c-0.1,0.1-0.3,0.1-0.4,0.1H150c-0.1,0-0.3,0-0.4-0.1c-0.1-0.1-0.1-0.3-0.1-0.4V74c0-0.6-0.1-1-0.4-1.3
			c-0.3-0.3-0.5-0.4-1-0.4c-0.4,0-0.8,0.1-1,0.4c-0.3,0.3-0.4,0.6-0.4,1.3v4.7c0,0.1,0,0.3-0.1,0.4c-0.1,0.1-0.3,0.1-0.4,0.1h-2.3
			c-0.1,0-0.3,0-0.4-0.1c-0.1-0.1-0.1-0.3-0.1-0.4v-8.4c0-0.1,0-0.3,0.1-0.4c0.1-0.1,0.3-0.1,0.4-0.1h2.2c0.1,0,0.3,0,0.4,0.1
			c0.1,0.1,0.1,0.3,0.1,0.4v0.3c0.3-0.4,0.6-0.6,1-0.8c0.4-0.3,0.8-0.3,1.3-0.3c0.6,0,1.1,0.1,1.6,0.4c0.5,0.3,0.9,0.6,1.3,1
			c0.4-0.5,0.8-0.8,1.3-1c0.5-0.3,1-0.4,1.6-0.4c0.5,0,1,0.1,1.4,0.3c0.4,0.1,0.8,0.4,1.1,0.8c0.4,0.4,0.5,0.8,0.8,1.3
			c0.1,0.5,0.3,1.1,0.3,1.8v4.9H158.6z"/>
		<path class="st1" d="M163.7,68.3c0,0.1,0,0.3-0.1,0.4c-0.1,0.1-0.3,0.1-0.4,0.1h-2.3c-0.1,0-0.3,0-0.4-0.1
			c-0.1-0.1-0.1-0.3-0.1-0.4v-1.8c0-0.1,0-0.3,0.1-0.4s0.3-0.1,0.4-0.1h2.3c0.1,0,0.3,0,0.4,0.1c0.1,0.1,0.1,0.3,0.1,0.4V68.3z
			 M163.7,78.5c0,0.1,0,0.3-0.1,0.4c-0.1,0.1-0.3,0.1-0.4,0.1h-2.3c-0.1,0-0.3,0-0.4-0.1c-0.1-0.1-0.1-0.3-0.1-0.4v-8.4
			c0-0.1,0-0.3,0.1-0.4c0.1-0.1,0.3-0.1,0.4-0.1h2.3c0.1,0,0.3,0,0.4,0.1c0.1,0.1,0.1,0.3,0.1,0.4V78.5z"/>
		<path class="st1" d="M168.5,73.7c0,0.1,0,0.4,0,0.6s0,0.5,0,0.6c0,0.4,0.3,0.8,0.5,1c0.3,0.3,0.6,0.4,1.1,0.4c0.4,0,0.8,0,0.9-0.1
			c0.3-0.1,0.4-0.3,0.5-0.5c0-0.1,0.1-0.1,0.3-0.3c0.1-0.1,0.1-0.1,0.3-0.1h2.4c0.1,0,0.3,0,0.4,0.1c0.1,0.1,0.1,0.3,0.1,0.4
			c0,0.3-0.1,0.5-0.3,0.9c-0.1,0.4-0.4,0.8-0.8,1.1c-0.4,0.4-0.9,0.6-1.4,0.9c-0.6,0.3-1.4,0.4-2.3,0.4c-0.6,0-1.3-0.1-1.9-0.3
			c-0.6-0.3-1.1-0.5-1.5-0.9c-0.4-0.4-0.8-0.8-1-1.3c-0.3-0.5-0.4-1.1-0.4-1.8c0-0.1,0-0.4,0-0.8c0-0.4,0-0.5,0-0.8
			c0-0.6,0.1-1.3,0.4-1.8c0.3-0.5,0.6-0.9,1-1.3c0.4-0.4,0.9-0.6,1.5-0.9s1.3-0.3,1.9-0.3c0.9,0,1.8,0.1,2.3,0.4
			c0.6,0.3,1.1,0.6,1.4,0.9c0.4,0.4,0.6,0.8,0.8,1.1c0.1,0.4,0.3,0.6,0.3,0.9c0,0.1,0,0.3-0.1,0.4s-0.3,0.1-0.4,0.1H172
			c-0.1,0-0.3,0-0.3-0.1c-0.1-0.1-0.1-0.1-0.3-0.3c-0.1-0.3-0.3-0.4-0.5-0.5c-0.3-0.1-0.5-0.1-0.9-0.1c-0.5,0-0.9,0.1-1.1,0.4
			C168.7,73,168.5,73.3,168.5,73.7z"/>
		<path class="st1" d="M185.6,73.7c0,0.1,0,0.4,0,0.6s0,0.5,0,0.6c0,0.6-0.1,1.1-0.4,1.6c-0.3,0.5-0.5,0.9-1,1.3
			c-0.4,0.4-0.9,0.6-1.5,0.9s-1.3,0.4-2,0.4s-1.4-0.1-2-0.4c-0.6-0.3-1.1-0.5-1.5-0.9c-0.4-0.4-0.8-0.8-1-1.3
			c-0.3-0.5-0.4-1-0.4-1.6c0-0.1,0-0.4,0-0.6s0-0.5,0-0.6c0-0.6,0.1-1.1,0.4-1.6c0.3-0.5,0.6-0.9,1-1.3c0.4-0.4,0.9-0.6,1.5-0.9
			c0.6-0.3,1.3-0.4,2-0.4s1.4,0.1,2,0.4c0.6,0.3,1.1,0.5,1.5,0.9c0.4,0.4,0.8,0.8,1,1.3C185.4,72.6,185.6,73.1,185.6,73.7z
			 M179.1,75c0,0.5,0.3,0.8,0.5,1c0.3,0.3,0.6,0.4,1.1,0.4s0.9-0.1,1.1-0.4c0.3-0.3,0.5-0.6,0.5-1c0-0.1,0-0.4,0-0.6s0-0.4,0-0.6
			c0-0.5-0.3-0.8-0.5-1c-0.3-0.3-0.6-0.4-1.1-0.4s-0.9,0.1-1.1,0.4c-0.3,0.3-0.5,0.6-0.5,1c0,0.1,0,0.4,0,0.6S179.1,74.9,179.1,75z"
			/>
		<path class="st1" d="M197.3,66.5c0.3,0,0.4,0.1,0.5,0.3s0.3,0.3,0.3,0.4l3.9,11.3c0,0.1,0.1,0.3,0.1,0.3c0,0.1,0,0.3-0.1,0.3
			c-0.1,0.1-0.1,0.1-0.3,0.1h-2.3c-0.3,0-0.4,0-0.5-0.1s-0.1-0.3-0.1-0.3l-0.5-1.5h-4.8l-0.5,1.5c0,0.1-0.1,0.3-0.1,0.3
			c-0.1,0.1-0.3,0.1-0.5,0.1h-2.3c-0.1,0-0.3,0-0.3-0.1c-0.1-0.1-0.1-0.1-0.1-0.3c0,0,0-0.1,0.1-0.3l3.9-11.3c0-0.1,0.1-0.3,0.3-0.4
			c0.1-0.1,0.3-0.3,0.5-0.3C194.5,66.5,197.3,66.5,197.3,66.5z M194.4,74.4h2.9l-1.4-4.3L194.4,74.4z"/>
		<path class="st1" d="M208.8,79.2c-0.4,0-0.6,0-0.9-0.1c-0.3-0.1-0.5-0.1-0.6-0.3c-0.3-0.1-0.4-0.3-0.5-0.4
			c-0.1-0.1-0.3-0.3-0.4-0.4v3.8c0,0.1,0,0.3-0.1,0.4c-0.1,0.1-0.3,0.1-0.4,0.1h-2.3c-0.1,0-0.3,0-0.4-0.1c-0.1-0.1-0.1-0.3-0.1-0.4
			V70.1c0-0.1,0-0.3,0.1-0.4c0.1-0.1,0.3-0.1,0.4-0.1h2.2c0.1,0,0.3,0,0.4,0.1c0.1,0.1,0.1,0.3,0.1,0.4v0.5c0.1-0.1,0.3-0.3,0.4-0.4
			c0.1-0.1,0.3-0.3,0.5-0.4c0.1-0.1,0.4-0.1,0.6-0.3c0.3-0.1,0.6-0.1,1-0.1c0.5,0,1,0.1,1.5,0.3c0.5,0.1,0.9,0.4,1.3,0.8
			s0.6,0.8,0.9,1.3c0.3,0.5,0.4,1.1,0.4,1.8c0,0.1,0,0.4,0,0.8c0,0.4,0,0.5,0,0.8c0,0.8-0.1,1.3-0.4,1.8c-0.3,0.5-0.5,0.9-0.9,1.3
			c-0.4,0.4-0.8,0.6-1.3,0.8C209.9,79.2,209.3,79.2,208.8,79.2z M209.6,74.9c0-0.4,0-0.6,0-1c0-0.4-0.1-0.8-0.4-1.1
			c-0.3-0.3-0.6-0.5-1.1-0.5c-0.3,0-0.5,0-0.6,0.1c-0.3,0.1-0.4,0.3-0.5,0.4s-0.3,0.3-0.3,0.5c-0.1,0.1-0.1,0.4-0.1,0.5s0,0.4,0,0.6
			s0,0.5,0,0.6c0,0.1,0.1,0.4,0.1,0.5c0.1,0.1,0.1,0.4,0.3,0.5s0.3,0.3,0.5,0.4c0.3,0.1,0.4,0.1,0.6,0.1c0.5,0,1-0.1,1.1-0.5
			C209.5,75.6,209.6,75.2,209.6,74.9z"/>
		<path class="st1" d="M217.7,78.5c0,0.1,0,0.3-0.1,0.4c-0.1,0.1-0.3,0.1-0.4,0.1h-2.3c-0.1,0-0.3,0-0.4-0.1
			c-0.1-0.1-0.1-0.3-0.1-0.4V66.8c0-0.1,0-0.3,0.1-0.4c0.1-0.1,0.3-0.1,0.4-0.1h2.3c0.1,0,0.3,0,0.4,0.1c0.1,0.1,0.1,0.3,0.1,0.4
			V78.5z"/>
		<path class="st1" d="M222.8,68.3c0,0.1,0,0.3-0.1,0.4c-0.1,0.1-0.3,0.1-0.4,0.1H220c-0.1,0-0.3,0-0.4-0.1
			c-0.1-0.1-0.1-0.3-0.1-0.4v-1.8c0-0.1,0-0.3,0.1-0.4s0.3-0.1,0.4-0.1h2.3c0.1,0,0.3,0,0.4,0.1c0.1,0.1,0.1,0.3,0.1,0.4V68.3z
			 M222.8,78.5c0,0.1,0,0.3-0.1,0.4c-0.1,0.1-0.3,0.1-0.4,0.1H220c-0.1,0-0.3,0-0.4-0.1c-0.1-0.1-0.1-0.3-0.1-0.4v-8.4
			c0-0.1,0-0.3,0.1-0.4c0.1-0.1,0.3-0.1,0.4-0.1h2.3c0.1,0,0.3,0,0.4,0.1c0.1,0.1,0.1,0.3,0.1,0.4V78.5z"/>
		<path class="st1" d="M227.6,73.7c0,0.1,0,0.4,0,0.6s0,0.5,0,0.6c0,0.4,0.3,0.8,0.5,1c0.3,0.3,0.6,0.4,1.1,0.4c0.4,0,0.8,0,0.9-0.1
			c0.3-0.1,0.4-0.3,0.5-0.5c0-0.1,0.1-0.1,0.3-0.3c0.1-0.1,0.1-0.1,0.3-0.1h2.4c0.1,0,0.3,0,0.4,0.1c0.1,0.1,0.1,0.3,0.1,0.4
			c0,0.3-0.1,0.5-0.3,0.9c-0.1,0.4-0.4,0.8-0.8,1.1s-0.9,0.6-1.4,0.9c-0.6,0.3-1.4,0.4-2.3,0.4c-0.6,0-1.3-0.1-1.9-0.3
			c-0.6-0.3-1.1-0.5-1.5-0.9c-0.4-0.4-0.8-0.8-1-1.3c-0.3-0.5-0.4-1.1-0.4-1.8c0-0.1,0-0.4,0-0.8c0-0.4,0-0.5,0-0.8
			c0-0.6,0.1-1.3,0.4-1.8c0.3-0.5,0.6-0.9,1-1.3c0.4-0.4,0.9-0.6,1.5-0.9s1.3-0.3,1.9-0.3c0.9,0,1.8,0.1,2.3,0.4
			c0.6,0.3,1.1,0.6,1.4,0.9c0.4,0.4,0.6,0.8,0.8,1.1c0.1,0.4,0.3,0.6,0.3,0.9c0,0.1,0,0.3-0.1,0.4s-0.3,0.1-0.4,0.1h-2.4
			c-0.1,0-0.3,0-0.3-0.1c-0.1-0.1-0.1-0.1-0.3-0.3c-0.1-0.3-0.3-0.4-0.5-0.5c-0.3-0.1-0.5-0.1-0.9-0.1c-0.5,0-0.9,0.1-1.1,0.4
			C227.8,73,227.7,73.3,227.6,73.7z"/>
		<path class="st1" d="M234.8,76.4c0-0.8,0.3-1.4,0.9-1.9c0.6-0.5,1.6-0.9,2.9-1.1l2.2-0.4c0-0.3-0.1-0.5-0.3-0.8
			c-0.1-0.1-0.4-0.3-0.8-0.3c-0.3,0-0.5,0-0.6,0.1c-0.1,0.1-0.3,0.1-0.4,0.3c-0.1,0.1-0.3,0.1-0.3,0.1c-0.1,0-0.3,0-0.4,0h-2.3
			c-0.1,0-0.3,0-0.3-0.1c-0.1-0.1-0.1-0.1-0.1-0.3c0-0.3,0.1-0.5,0.4-0.9c0.3-0.3,0.5-0.6,0.9-0.9c0.4-0.3,0.9-0.5,1.4-0.6
			c0.5-0.1,1.1-0.3,1.6-0.3c0.8,0,1.4,0.1,1.9,0.3s1,0.4,1.4,0.8c0.4,0.3,0.6,0.6,0.8,1.1c0.1,0.4,0.3,0.9,0.3,1.4v5.4
			c0,0.1,0,0.3-0.1,0.4c-0.1,0.1-0.3,0.1-0.4,0.1h-2.3c-0.1,0-0.3,0-0.4-0.1c-0.1-0.1-0.1-0.3-0.1-0.4v-0.5c-0.3,0.4-0.6,0.6-1,0.9
			c-0.4,0.3-1,0.3-1.6,0.3c-0.5,0-1-0.1-1.4-0.3c-0.4-0.1-0.8-0.4-1-0.6c-0.3-0.3-0.5-0.5-0.6-0.9C234.9,77.1,234.8,76.8,234.8,76.4
			z M238.8,76.8c0.3,0,0.5,0,0.8-0.1c0.3-0.1,0.4-0.3,0.6-0.4c0.1-0.1,0.3-0.4,0.4-0.5c0.1-0.3,0.1-0.4,0.1-0.6l-1.6,0.3
			c-0.4,0-0.6,0.1-0.8,0.3c-0.3,0.1-0.3,0.4-0.3,0.5c0,0.3,0.1,0.4,0.3,0.5C238.5,76.8,238.6,76.8,238.8,76.8z"/>
		<path class="st1" d="M249.5,69.6c0.4,0,0.6,0,0.9,0.1c0.3,0.1,0.5,0.1,0.6,0.3c0.3,0.1,0.4,0.3,0.5,0.4c0.1,0.1,0.3,0.3,0.4,0.4
			v-3.8c0-0.1,0-0.3,0.1-0.4c0.1-0.1,0.3-0.1,0.4-0.1h2.3c0.1,0,0.3,0,0.4,0.1c0.1,0.1,0.1,0.3,0.1,0.4v11.8c0,0.1,0,0.3-0.1,0.4
			c-0.1,0.1-0.3,0.1-0.4,0.1h-2.2c-0.1,0-0.3,0-0.4-0.1c-0.1-0.1-0.1-0.3-0.1-0.4v-0.5c-0.1,0.1-0.3,0.3-0.4,0.4
			c-0.1,0.1-0.3,0.3-0.5,0.4c-0.1,0.1-0.4,0.1-0.6,0.3c-0.3,0.1-0.6,0.1-1,0.1c-0.5,0-1-0.1-1.5-0.3c-0.5-0.1-0.9-0.4-1.3-0.8
			c-0.4-0.4-0.6-0.8-0.9-1.3c-0.3-0.5-0.4-1.1-0.4-1.8c0-0.1,0-0.4,0-0.8s0-0.5,0-0.8c0-0.8,0.1-1.3,0.4-1.8
			c0.3-0.5,0.5-0.9,0.9-1.3c0.4-0.4,0.8-0.6,1.3-0.8C248.5,69.7,249,69.6,249.5,69.6z M248.7,73.9c0,0.4,0,0.6,0,1s0.1,0.8,0.4,1.1
			c0.3,0.3,0.6,0.5,1.1,0.5c0.3,0,0.5,0,0.6-0.1c0.3-0.1,0.4-0.3,0.5-0.4c0.1-0.1,0.3-0.3,0.3-0.5c0.1-0.1,0.1-0.4,0.1-0.5
			c0-0.1,0-0.4,0-0.6s0-0.5,0-0.6s-0.1-0.4-0.1-0.5c-0.1-0.1-0.1-0.4-0.3-0.5s-0.3-0.3-0.5-0.4c-0.3-0.1-0.4-0.1-0.6-0.1
			c-0.5,0-1,0.1-1.1,0.5C248.8,73.1,248.7,73.5,248.7,73.9z"/>
		<path class="st1" d="M266.4,73.7c0,0.1,0,0.4,0,0.6s0,0.5,0,0.6c0,0.6-0.1,1.1-0.4,1.6c-0.3,0.5-0.5,0.9-1,1.3
			c-0.4,0.4-0.9,0.6-1.5,0.9c-0.6,0.3-1.3,0.4-2,0.4c-0.8,0-1.4-0.1-2-0.4c-0.6-0.3-1.1-0.5-1.5-0.9c-0.4-0.4-0.8-0.8-1-1.3
			c-0.3-0.5-0.4-1-0.4-1.6c0-0.1,0-0.4,0-0.6s0-0.5,0-0.6c0-0.6,0.1-1.1,0.4-1.6c0.3-0.5,0.6-0.9,1-1.3c0.4-0.4,0.9-0.6,1.5-0.9
			c0.6-0.3,1.3-0.4,2-0.4c0.8,0,1.4,0.1,2,0.4c0.6,0.3,1.1,0.5,1.5,0.9c0.4,0.4,0.8,0.8,1,1.3C266.3,72.6,266.4,73.1,266.4,73.7z
			 M259.9,75c0,0.5,0.3,0.8,0.5,1c0.3,0.3,0.6,0.4,1.1,0.4c0.5,0,0.9-0.1,1.1-0.4c0.3-0.3,0.5-0.6,0.5-1c0-0.1,0-0.4,0-0.6
			s0-0.4,0-0.6c0-0.5-0.3-0.8-0.5-1c-0.3-0.3-0.6-0.4-1.1-0.4c-0.5,0-0.9,0.1-1.1,0.4c-0.3,0.3-0.5,0.6-0.5,1c0,0.1,0,0.4,0,0.6
			S259.9,74.9,259.9,75z"/>
	</g>
</g>
</svg>
